<svg width="16" height="18" viewBox="0 0 16 18" fill="none" xmlns="http://www.w3.org/2000/svg">
<path d="M6.60148 14.52C7.39872 15.2222 8.60124 15.2223 9.39852 14.52C10.8393 13.251 13.3676 10.7044 14.1123 7.90671C14.2555 7.36868 14.3281 6.83754 14.3281 6.32812C14.3281 2.8388 11.4893 0 8 0C4.51067 0 1.67188 2.8388 1.67188 6.32812C1.67188 9.67788 4.76046 12.8984 6.60148 14.52ZM8 1.40625C10.7139 1.40625 12.9219 3.6142 12.9219 6.32812C12.9219 6.71548 12.8652 7.12491 12.7534 7.54502C12.104 9.98434 9.7904 12.3009 8.46902 13.4647C8.19726 13.7041 7.80281 13.7041 7.53095 13.4647C6.19213 12.2855 3.07812 9.2295 3.07812 6.32812C3.07812 3.6142 5.28608 1.40625 8 1.40625Z" fill="#878787"/>
<path d="M2.375 18H13.625C14.7881 18 15.7344 17.0537 15.7344 15.8906C15.7344 15.5645 15.6576 15.2386 15.5125 14.9481L14.2948 12.5128C14.1211 12.1655 13.6989 12.0247 13.3514 12.1984C13.0041 12.3721 12.8633 12.7944 13.037 13.1417L14.2546 15.5769C14.3034 15.6745 14.3282 15.7801 14.3282 15.8906C14.3282 16.2783 14.0127 16.5938 13.625 16.5938H2.375C1.9873 16.5938 1.67188 16.2783 1.67188 15.8906C1.67188 15.7801 1.69659 15.6746 1.74539 15.577L2.96056 13.1466C3.1342 12.7993 2.99343 12.3769 2.64612 12.2032C2.29868 12.0296 1.87641 12.1704 1.70278 12.5177L0.487602 14.9481C0.342406 15.2386 0.265625 15.5645 0.265625 15.8906C0.265625 17.0537 1.21189 18 2.375 18Z" fill="#878787"/>
<path d="M8 8.4375C9.16311 8.4375 10.1094 7.49123 10.1094 6.32812C10.1094 5.16502 9.16311 4.21875 8 4.21875C6.83689 4.21875 5.89062 5.16502 5.89062 6.32812C5.89062 7.49123 6.83689 8.4375 8 8.4375ZM8 5.625C8.3877 5.625 8.70312 5.94042 8.70312 6.32812C8.70312 6.71583 8.3877 7.03125 8 7.03125C7.6123 7.03125 7.29688 6.71583 7.29688 6.32812C7.29688 5.94042 7.6123 5.625 8 5.625Z" fill="#878787"/>
</svg>
