<svg width="18" height="17" viewBox="0 0 18 17" fill="none" xmlns="http://www.w3.org/2000/svg">
<path d="M0 8.07223C0 8.51498 0.362254 8.87723 0.805009 8.87723H15.1704L9.2737 14.782C8.95975 15.0959 8.95975 15.6071 9.2737 15.9211C9.43068 16.078 9.63596 16.1585 9.84123 16.1585C10.0465 16.1585 10.2518 16.078 10.4088 15.9211L17.686 8.64378C18 8.32983 18 7.81865 17.686 7.50469L10.4208 0.235465C10.1069 -0.0784883 9.59571 -0.0784883 9.28175 0.235465C8.9678 0.549419 8.9678 1.0606 9.28175 1.37455L15.1744 7.26722H0.805009C0.366279 7.26722 0 7.62947 0 8.07223Z" fill="#878787"/>
</svg>
