<svg width="22" height="22" viewBox="0 0 22 22" fill="none" xmlns="http://www.w3.org/2000/svg">
<path d="M19.4219 3.4375H5.06993C4.67066 1.47868 2.93442 0 0.859375 0C0.384742 0 0 0.384742 0 0.859375C0 1.33401 0.384742 1.71875 0.859375 1.71875C2.28095 1.71875 3.4375 2.8753 3.4375 4.29688V11.1719C3.4375 13.5412 5.36508 15.4688 7.73438 15.4688H17.7031C20.0724 15.4688 22 13.5412 22 11.1719V6.01562C22 4.59405 20.8435 3.4375 19.4219 3.4375ZM20.2812 11.1719C20.2812 12.5935 19.1247 13.75 17.7031 13.75H7.73438C6.3128 13.75 5.15625 12.5935 5.15625 11.1719V5.15625H19.4219C19.8957 5.15625 20.2812 5.54177 20.2812 6.01562V11.1719Z" fill="white"/>
<path d="M10.1406 19.4219C10.1406 18.0003 8.98408 16.8438 7.5625 16.8438C6.14092 16.8438 4.98438 18.0003 4.98438 19.4219C4.98438 20.8435 6.14092 22 7.5625 22C8.98408 22 10.1406 20.8435 10.1406 19.4219ZM6.70312 19.4219C6.70312 18.948 7.08864 18.5625 7.5625 18.5625C8.03636 18.5625 8.42188 18.948 8.42188 19.4219C8.42188 19.8957 8.03636 20.2812 7.5625 20.2812C7.08864 20.2812 6.70312 19.8957 6.70312 19.4219Z" fill="white"/>
<path d="M17.875 22C19.2966 22 20.4531 20.8435 20.4531 19.4219C20.4531 18.0003 19.2966 16.8438 17.875 16.8438C16.4534 16.8438 15.2969 18.0003 15.2969 19.4219C15.2969 20.8435 16.4534 22 17.875 22ZM17.875 18.5625C18.3489 18.5625 18.7344 18.948 18.7344 19.4219C18.7344 19.8957 18.3489 20.2812 17.875 20.2812C17.4011 20.2812 17.0156 19.8957 17.0156 19.4219C17.0156 18.948 17.4011 18.5625 17.875 18.5625Z" fill="white"/>
<path d="M9.28125 12.0312C9.75588 12.0312 10.1406 11.6465 10.1406 11.1719V7.73438C10.1406 7.25974 9.75588 6.875 9.28125 6.875C8.80662 6.875 8.42188 7.25974 8.42188 7.73438V11.1719C8.42188 11.6465 8.80662 12.0312 9.28125 12.0312Z" fill="white"/>
<path d="M12.7188 12.0312C13.1934 12.0312 13.5781 11.6465 13.5781 11.1719V7.73438C13.5781 7.25974 13.1934 6.875 12.7188 6.875C12.2441 6.875 11.8594 7.25974 11.8594 7.73438V11.1719C11.8594 11.6465 12.2441 12.0312 12.7188 12.0312Z" fill="white"/>
<path d="M15.2969 11.1719C15.2969 11.6465 15.6816 12.0312 16.1562 12.0312C16.6309 12.0312 17.0156 11.6465 17.0156 11.1719V7.73438C17.0156 7.25974 16.6309 6.875 16.1562 6.875C15.6816 6.875 15.2969 7.25974 15.2969 7.73438V11.1719Z" fill="white"/>
</svg>
