<svg width="55" height="53" viewBox="0 0 55 53" fill="none" xmlns="http://www.w3.org/2000/svg">
<path d="M47.9901 11.7795C46.6023 11.7795 46.5999 13.9364 47.9901 13.9364C49.3779 13.9364 49.3802 11.7795 47.9901 11.7795Z" fill="#192E46"/>
<path d="M54.9852 48.4554L49.6146 16.2181C49.5167 15.6306 48.9624 15.2335 48.3736 15.3315C47.7862 15.4295 47.3892 15.9851 47.487 16.5725L52.6804 47.7461L39.9257 49.871L32.4937 5.25416L45.2475 3.12925L46.3129 9.52461C46.4108 10.112 46.9648 10.5085 47.5539 10.4112C48.1413 10.3133 48.5384 9.75761 48.4405 9.17023L47.1979 1.71106C47.1509 1.42897 46.9937 1.17707 46.761 1.01078C46.5282 0.844493 46.2392 0.777569 45.9569 0.824405L32.1495 3.12474C31.9561 2.83556 31.6267 2.64521 31.2528 2.64521H1.07841C0.482969 2.64521 0 3.12796 0 3.72361V51.1118C0 51.7076 0.482969 52.1903 1.07841 52.1903H31.2528C31.8483 52.1903 32.3312 51.7075 32.3312 51.1119V17.4054L37.9752 51.2892C38.0223 51.5713 38.1795 51.8232 38.4121 51.9894C38.5964 52.121 38.8157 52.1903 39.039 52.1903C39.098 52.1903 39.1573 52.1855 39.2163 52.1756L54.0986 49.6963C54.6861 49.5986 55.083 49.0429 54.9852 48.4554ZM15.0872 50.0335H2.15682V4.80213H15.0872V50.0335ZM30.1744 50.0335H17.244V4.80213H30.1744V50.0335Z" fill="#192E46"/>
<path d="M11.717 7.48105H5.52686C4.93132 7.48105 4.44846 7.96391 4.44846 8.55945V35.2516C4.44846 35.8473 4.93142 36.33 5.52686 36.33H11.717C12.3126 36.33 12.7955 35.8472 12.7955 35.2516V8.55945C12.7955 7.9638 12.3126 7.48105 11.717 7.48105ZM10.6385 34.1731H6.60527V9.63786H10.6386L10.6385 34.1731Z" fill="#192E46"/>
<path d="M8.62188 39.0077C6.32048 39.0077 4.44833 40.8799 4.44833 43.1812C4.44833 45.4825 6.32048 47.3548 8.62188 47.3548C10.9233 47.3548 12.7954 45.4825 12.7954 43.1812C12.7954 40.8799 10.9233 39.0077 8.62188 39.0077ZM8.62188 45.1978C7.50985 45.1978 6.60525 44.2931 6.60525 43.1812C6.60525 42.0692 7.50996 41.1646 8.62188 41.1646C9.73381 41.1646 10.6385 42.0693 10.6385 43.1812C10.6385 44.2931 9.73402 45.1978 8.62188 45.1978Z" fill="#192E46"/>
<path d="M26.8034 7.48105H20.6143C20.0187 7.48105 19.5359 7.96391 19.5359 8.55945V35.2516C19.5359 35.8473 20.0188 36.33 20.6143 36.33H26.8034C27.3989 36.33 27.8818 35.8472 27.8818 35.2516V8.55945C27.8818 7.9638 27.3988 7.48105 26.8034 7.48105ZM25.7249 34.1731H21.6927V9.63786H25.7249V34.1731Z" fill="#192E46"/>
<path d="M23.7093 39.0077C21.408 39.0077 19.5359 40.8799 19.5359 43.1812C19.5358 45.4825 21.408 47.3548 23.7093 47.3548C26.0101 47.3548 27.8818 45.4825 27.8818 43.1812C27.8818 40.8799 26.0101 39.0077 23.7093 39.0077ZM23.7093 45.1978C22.5974 45.1978 21.6928 44.2931 21.6928 43.1812C21.6927 42.0693 22.5974 41.1646 23.7093 41.1646C24.8207 41.1646 25.7249 42.0693 25.7249 43.1812C25.7249 44.2931 24.8207 45.1978 23.7093 45.1978Z" fill="#192E46"/>
<path d="M47.9904 33.5418L43.6044 7.21215C43.5574 6.93006 43.4002 6.67815 43.1676 6.51187C42.9348 6.34558 42.6457 6.27855 42.3634 6.32549L36.2585 7.34245C35.6711 7.44042 35.2741 7.99601 35.372 8.58339L39.7579 34.9132C39.8049 35.1953 39.9621 35.4472 40.1948 35.6135C40.379 35.7451 40.5984 35.8144 40.8217 35.8144C40.8807 35.8144 40.94 35.8096 40.9989 35.7997L47.1038 34.7827C47.6912 34.6849 48.0882 34.1293 47.9904 33.5418ZM41.7082 33.4952L37.6767 9.29291L41.6541 8.63033L45.6856 32.8326L41.7082 33.4952Z" fill="#192E46"/>
<path d="M49.2931 41.3631C49.1101 40.2641 48.5098 39.3018 47.6028 38.6539C46.6958 38.0063 45.5907 37.7502 44.4917 37.933C43.3922 38.116 42.4298 38.7163 41.7818 39.6235C41.1339 40.5305 40.8779 41.6354 41.0608 42.7346C41.2437 43.8346 41.8439 44.7973 42.7512 45.4454C43.4669 45.9565 44.3054 46.2235 45.167 46.2234C45.3979 46.2234 45.6303 46.2042 45.8624 46.1655C46.9618 45.9826 47.9243 45.3823 48.5725 44.4751C49.2208 43.5679 49.4767 42.4626 49.2931 41.3631ZM46.8176 43.2214C46.5045 43.6597 46.0395 43.9497 45.5077 44.0383C44.9768 44.1269 44.4428 44.0035 44.0046 43.6903C43.5664 43.3774 43.2764 42.9124 43.1881 42.3807C43.0998 41.8495 43.2234 41.3154 43.5366 40.877C43.8496 40.4389 44.3144 40.1488 44.8453 40.0604C44.9572 40.0418 45.0693 40.0326 45.1805 40.0326C45.5973 40.0326 46.0029 40.1618 46.3489 40.409C46.7871 40.7219 47.077 41.1867 47.1654 41.7177C47.1653 41.7174 47.1654 41.7179 47.1654 41.7177C47.2544 42.2487 47.1307 42.7831 46.8176 43.2214Z" fill="#192E46"/>
</svg>
