<svg width="18" height="18" viewBox="0 0 18 18" fill="none" xmlns="http://www.w3.org/2000/svg">
<path d="M14.4844 15.3281H3.51562C1.57711 15.3281 0 13.751 0 11.8125V6.1875C0 4.24898 1.57711 2.67188 3.51562 2.67188H14.4844C16.4229 2.67188 18 4.24898 18 6.1875V11.8125C18 13.751 16.4229 15.3281 14.4844 15.3281ZM3.51562 4.07812C2.35252 4.07812 1.40625 5.02439 1.40625 6.1875V11.8125C1.40625 12.9756 2.35252 13.9219 3.51562 13.9219H14.4844C15.6475 13.9219 16.5938 12.9756 16.5938 11.8125V6.1875C16.5938 5.02439 15.6475 4.07812 14.4844 4.07812H3.51562Z" fill="#878787"/>
<path d="M7.65926 10.6285C7.65659 10.6263 7.65392 10.624 7.65125 10.6218L3.06051 6.72346C2.76453 6.47209 2.72832 6.02838 2.97969 5.73237C3.23102 5.43639 3.67476 5.40018 3.97077 5.65154L8.55684 9.54591C8.81524 9.75621 9.1854 9.75575 9.44323 9.54591L14.0293 5.65154C14.3253 5.40018 14.769 5.43639 15.0204 5.73237C15.2717 6.02838 15.2355 6.47209 14.9396 6.72346L10.3488 10.6218C10.3461 10.624 10.3435 10.6263 10.3408 10.6285C9.56262 11.2697 8.4365 11.2689 7.65926 10.6285Z" fill="#878787"/>
</svg>
