<svg id="Espress_Logo" data-name="Espress Logo" xmlns="http://www.w3.org/2000/svg" xmlns:xlink="http://www.w3.org/1999/xlink" viewBox="0 0 256 256"><defs><style>.cls-1{fill:url(#Gradiente_sem_nome_7);}.cls-2{fill:#fff;}.cls-3{fill:#bf0d18;}.cls-4{fill:#b41012;}</style><linearGradient id="Gradiente_sem_nome_7" x2="256" y2="256" gradientUnits="userSpaceOnUse"><stop offset="0" stop-color="#f38f0c"/><stop offset="1" stop-color="#ec6d09"/></linearGradient></defs><rect class="cls-1" width="256" height="256"/><path class="cls-2" d="M178.2,93.3a7.36,7.36,0,0,0-1.5-11.54l-5.61-3.28L165,74.92a12.22,12.22,0,0,0-6.21-1.69l0-8,0-6.42a7.37,7.37,0,0,0-9.17-7.17l-6.3,1.6L136.53,55a12.41,12.41,0,0,0-5.56,3.1l-5.74-5.69-4.66-4.62a7.52,7.52,0,0,0-11.79,1.53l-3.35,5.74-3.64,6.22a12.76,12.76,0,0,0-1.71,5.61L92,67.07l-6.37.13a7.23,7.23,0,0,0-6.79,9.27l1.81,6.21,2,6.74a12.45,12.45,0,0,0,3.58,5.73l-6.59,6.43L75,106a7.23,7.23,0,0,0,1.38,11.41l5.56,3.3,6,3.59A12.44,12.44,0,0,0,95.67,126l0,8.76,0,6.31a7.15,7.15,0,0,0,9,6.95l6.19-1.62,6.71-1.77a12.27,12.27,0,0,0,6-3.68l5.42,5.74,4.42,4.69a7.29,7.29,0,0,0,11.53-1.21l3.43-5.56,3.72-6a12.64,12.64,0,0,0,1.85-7.12l7.47,0,6.47,0a7.32,7.32,0,0,0,7.09-9.24l-1.68-6.34L171.41,109a12.58,12.58,0,0,0-3.22-5.62l5.49-5.53Zm-51.41,22a15.76,15.76,0,1,1,15.76-15.76A15.77,15.77,0,0,1,126.79,115.29Z"/><path class="cls-3" d="M113.23,61.33l-2.09-2.08-1.47,2.59-2.8,4.93-.1.18a2.27,2.27,0,0,0,.37,2.72l10.08,9.86a22,22,0,0,1,9.45-2.21L126.8,76l.1-1-.73-.74Z"/><path class="cls-3" d="M126.4,64.3h0l-10-9.83h0a1.71,1.71,0,0,0-2.67.4l-.22.4-.63,1.12L124,67.67l2.92,3V64.79Z"/><path class="cls-3" d="M166.35,116.91l-.8-2.83-1.56-5.6a2.41,2.41,0,0,0-.26-.59,2.27,2.27,0,0,0-1.9-1.06l-14,.06a22.2,22.2,0,0,1-4.94,8.06l0,0,.88,1.08.66.8h1l18,.08Z"/><path class="cls-3" d="M167.67,121.74l-.12-.43-.35-1.22-15.65-.2-4.1,0,2.91,2.91.68.68.5.5h.7l13.84-.06h0A1.65,1.65,0,0,0,167.67,121.74Z"/><path class="cls-3" d="M126.8,129v5.75l.5.48v0l9.8,9.69h0a1.65,1.65,0,0,0,2.6-.38l.22-.4.62-1.1-10.9-11.15Z"/><path class="cls-3" d="M146.08,129.39l-9.78-9.66a22.32,22.32,0,0,1-9.28,2.12l-.13,1.3-.1,1,.72.72,12.61,12.71,2,2.06,1.44-2.56,2.82-5a2.05,2.05,0,0,0,.24-.65A2.22,2.22,0,0,0,146.08,129.39Z"/><path class="cls-3" d="M106.11,120.73l-2.77,2.91-.64.66-.49.51,0,.67h0l.38,13.5v0a1.62,1.62,0,0,0,2.12,1.48l.41-.13,1.19-.37-.18-15.27Z"/><path class="cls-3" d="M119.07,120.48a22.39,22.39,0,0,1-7.74-4.85l-1.23,1.06-.77.66,0,1,.33,17.54.06,2.84,2.74-.84,5.43-1.66a2.28,2.28,0,0,0,.77-.41,2.22,2.22,0,0,0,.78-1.73Z"/><polygon class="cls-3" points="119.07 120.32 119.08 120.48 119.08 120.48 119.07 120.32"/><polygon class="cls-3" points="111.33 115.63 111.33 115.63 111.47 115.5 111.33 115.63"/><path class="cls-3" d="M97.24,100.18l-4,.07-.93,0h-.7l-.46.49h0l-9.34,9.75h0a1.62,1.62,0,0,0,.42,2.55l.39.21,1.09.58L94.43,103Z"/><path class="cls-3" d="M104.48,100.3l-1.56-.12-1-.08-.7.71L89,113.36l-2,2,2.53,1.37,5,2.69a2.2,2.2,0,0,0,2.62-.39l9.53-9.94A22.12,22.12,0,0,1,104.48,100.3Z"/><path class="cls-3" d="M108.51,81.32h-.21l-17.52.78-2.84.12L88.86,85l1.79,5.38c0,.1.08.2.12.28a2.22,2.22,0,0,0,2.07,1.22l13.5-.73c.17-.41.35-.81.54-1.21a21.77,21.77,0,0,1,4.23-6Z"/><path class="cls-3" d="M105.33,78.17l-3.68-3.81-.67,0h0l-13.48.73h0A1.62,1.62,0,0,0,86,77.27l.14.41.4,1.18,15.27-.56Z"/><polygon class="cls-3" points="142.3 83.48 142.3 83.48 142.28 83.5 142.3 83.48"/><path class="cls-3" d="M136,62.37a2.28,2.28,0,0,0-.51.21,2.21,2.21,0,0,0-1.12,1.91l0,14.12v-.06a22.12,22.12,0,0,1,7.9,4.93l1.15-.93.8-.65v-1l.1-17.87,0-2.89-2.82.76Z"/><path class="cls-3" d="M151.29,60.48v0a1.66,1.66,0,0,0-2.11-1.58l-.44.11-1.2.33-.21,15.56-.06,4.05,2.89-2.85.67-.66.5-.49v-.69h0Z"/><path class="cls-3" d="M167,84.07l-2.54-1.44-5-2.84a2,2,0,0,0-.68-.24,2.16,2.16,0,0,0-2,.6l-9.76,10h0a22.28,22.28,0,0,1,2.07,9.12l1.5.15,1,.1.72-.71L165,86.12Z"/><path class="cls-3" d="M171.3,86.55l-.4-.22-1.09-.62L158.75,96.64l-2.89,2.85h5.71l.48-.48h0l9.62-9.83h0A1.66,1.66,0,0,0,171.3,86.55Z"/><path class="cls-4" d="M87.52,175.73v5.79a1,1,0,0,1-1,1h-18a1,1,0,0,1-1-1v-5.87h-4v4.87a4.74,4.74,0,0,0,.43,2,4.89,4.89,0,0,0,3.61,2.81,5.71,5.71,0,0,0,.84.07H86.68a5.83,5.83,0,0,0,.84-.07,4.84,4.84,0,0,0,3.6-2.81,4.74,4.74,0,0,0,.43-2v-4.87h-4Z"/><path class="cls-4" d="M90,188.73a5,5,0,0,0-3.28-1.28H68.37a4.6,4.6,0,0,0-.84.08,4.8,4.8,0,0,0-2.45,1.2,4.88,4.88,0,0,0-1.16,1.6,4.82,4.82,0,0,0-.43,2V198h4v-6.64a1,1,0,0,1,1-1h18a1,1,0,0,1,1,1V198h4v-5.64a4.82,4.82,0,0,0-.43-2A4.74,4.74,0,0,0,90,188.73Z"/><path class="cls-4" d="M58,178.13a6.52,6.52,0,0,0-5.12-2.48H37.57a6.23,6.23,0,0,0-1.15.1,6.53,6.53,0,0,0-5.4,6.44v9.24a6.55,6.55,0,0,0,5.4,6.44,7.23,7.23,0,0,0,1.15.1H58v-3.34H39a2.22,2.22,0,0,1-.37,0A2.58,2.58,0,0,1,36.42,192V181.58A2.57,2.57,0,0,1,38.65,179a1.5,1.5,0,0,1,.37,0H51.87a3.21,3.21,0,0,1,3.21,3.21c0,.11,0,.21,0,.32a3.2,3.2,0,0,1-3.19,2.88H38.65v3.34H52.83A6.6,6.6,0,0,0,58,186.25a4.93,4.93,0,0,0,.57-.86,6.52,6.52,0,0,0,.84-2.88v-.32a6.45,6.45,0,0,0-.84-3.21A5.26,5.26,0,0,0,58,178.13Z"/><path class="cls-4" d="M217.27,175.65a4.87,4.87,0,0,0-4.88,4.87V192a2.59,2.59,0,0,1-2.59,2.59H199.36V198h13.56a4.88,4.88,0,0,0,4.63-3.34,5.1,5.1,0,0,0,.24-1.53V181.58a2.59,2.59,0,0,1,2.6-2.6h10v-3.33Z"/><path class="cls-4" d="M208.05,179v-3.33H195a4.88,4.88,0,0,0-4.63,3.33,4.65,4.65,0,0,0-.25,1.54V192a2.59,2.59,0,0,1-2.59,2.59H161a2,2,0,0,1-.36,0,2.58,2.58,0,0,1-2.23-2.56V181.58A2.57,2.57,0,0,1,160.6,179a1.37,1.37,0,0,1,.36,0h12.86a3.21,3.21,0,0,1,3.2,3.21c0,.11,0,.21,0,.32a3.2,3.2,0,0,1-3.19,2.88H160.6v3.34h14.17a6.53,6.53,0,0,0,5.12-2.48,5.63,5.63,0,0,0,.58-.86,6.51,6.51,0,0,0,.83-2.88c0-.11,0-.21,0-.32a6.45,6.45,0,0,0-.84-3.21,6.07,6.07,0,0,0-.58-.85,6.5,6.5,0,0,0-5.12-2.48H159.51a6.12,6.12,0,0,0-1.14.1,6.56,6.56,0,0,0-4.56,3.23,6.45,6.45,0,0,0-.84,3.21v9.24a6.42,6.42,0,0,0,.84,3.2,6.55,6.55,0,0,0,4.56,3.24,7.11,7.11,0,0,0,1.14.1H190.6a4.88,4.88,0,0,0,4.63-3.34,4.81,4.81,0,0,0,.24-1.53V181.58a2.59,2.59,0,0,1,2.6-2.6h10Z"/><path class="cls-4" d="M120.38,175.94a6.54,6.54,0,0,0-1.93-.29H97.84V179h19.33a3.21,3.21,0,0,1,3.21,3.21c0,.11,0,.21,0,.32a3.2,3.2,0,0,1-3.19,2.88H104.38a6.12,6.12,0,0,0-1.14.1,6.55,6.55,0,0,0-3.63,2,6.63,6.63,0,0,0-1.77,4.48v6h5.4v-6.65a2.59,2.59,0,0,1,2.59-2.59h12.62a6.54,6.54,0,0,0,1.93-.29,6.3,6.3,0,0,0,2-1,6.62,6.62,0,0,0,2.65-4.94v-.32a6.45,6.45,0,0,0-.84-3.21A6.54,6.54,0,0,0,120.38,175.94Z"/><path class="cls-4" d="M133.91,175.75a6.53,6.53,0,0,0-5.4,6.44c0,.11,0,.21,0,.32h0V198h5.4V181.58a2.59,2.59,0,0,1,2.6-2.6h13.94v-3.33h-15.4A6.12,6.12,0,0,0,133.91,175.75Z"/></svg>