<svg width="55" height="55" viewBox="0 0 55 55" fill="none" xmlns="http://www.w3.org/2000/svg">
<path d="M54.3935 42.227L53.5028 39.8303C53.2961 39.2744 52.6781 38.9911 52.1219 39.1977C51.5658 39.4044 51.2826 40.0226 51.4892 40.5786L52.3798 42.9753C53.2267 45.2542 52.9165 47.7062 51.5288 49.7024C50.141 51.6987 47.9506 52.8436 45.5193 52.8436C42.9625 52.8436 40.6343 51.5447 39.2913 49.3689L38.2037 47.6069C38.5983 46.9371 38.8257 46.1574 38.8257 45.3252C38.8257 42.8378 36.802 40.8142 34.3146 40.8142C32.1973 40.8142 30.4171 42.2808 29.9339 44.2512H25.066C24.5828 42.2808 22.8025 40.8142 20.6853 40.8142C18.1979 40.8142 16.1742 42.8378 16.1742 45.3252C16.1742 46.1573 16.4016 46.9369 16.7961 47.6068L15.7085 49.3689C14.3655 51.5447 12.0373 52.8436 9.48049 52.8436C7.04926 52.8436 4.85893 51.6987 3.47114 49.7024C2.08335 47.7062 1.77306 45.2542 2.62006 42.9753L7.7692 29.1194C9.08502 25.5787 12.5071 23.1996 16.2844 23.1996H38.7157C42.493 23.1996 45.9151 25.5786 47.2309 29.1194L48.1216 31.5164C48.3283 32.0724 48.9466 32.3558 49.5026 32.149C50.0586 31.9424 50.3418 31.3241 50.1352 30.7681L49.2445 28.3711C47.6175 23.993 43.3862 21.0515 38.7157 21.0515H36.2128C35.7022 18.1269 33.1465 15.896 30.0779 15.896H28.5741V15.0905C28.5741 11.922 25.9964 9.3443 22.8279 9.3443H11.5503C9.56631 9.3443 7.95222 7.7302 7.95222 5.74621C7.95222 3.76221 9.56631 2.14811 11.5503 2.14811H27.5137C28.1069 2.14811 28.5878 1.66726 28.5878 1.07406C28.5878 0.480855 28.1069 0 27.5137 0H11.5503C8.38184 0 5.8041 2.57774 5.8041 5.74621C5.8041 8.91467 8.38184 11.4924 11.5503 11.4924H22.8279C24.8119 11.4924 26.426 13.1065 26.426 15.0905V15.896H24.9223C21.8537 15.896 19.298 18.1269 18.7874 21.0515H16.2844C11.6139 21.0515 7.38264 23.993 5.75566 28.3711L0.606523 42.227C-0.489015 45.1748 -0.0877474 48.3464 1.70743 50.9287C3.5025 53.5108 6.33576 54.9918 9.48071 54.9918C12.7879 54.9918 15.7995 53.3116 17.5366 50.4973L18.3482 49.1825C19.0303 49.5974 19.8304 49.8365 20.6855 49.8365C22.8028 49.8365 24.583 48.3699 25.0662 46.3995H29.934C30.4172 48.3699 32.1976 49.8365 34.3147 49.8365C35.1697 49.8365 35.9698 49.5974 36.6518 49.1826L37.4633 50.4973C39.2005 53.3117 42.2121 54.9918 45.5193 54.9918C48.6641 54.9918 51.4974 53.5108 53.2925 50.9287C55.0878 48.3464 55.489 45.1748 54.3935 42.227ZM24.9223 18.0442H30.0779C31.9569 18.0442 33.5432 19.3204 34.0158 21.0515H20.9843C21.4569 19.3205 23.0434 18.0442 24.9223 18.0442ZM20.6854 47.6883C19.3824 47.6883 18.3225 46.6283 18.3225 45.3253C18.3225 44.0224 19.3824 42.9624 20.6854 42.9624C21.9883 42.9624 23.0483 44.0224 23.0483 45.3253C23.0483 46.6282 21.9883 47.6883 20.6854 47.6883ZM31.9519 45.3253C31.9519 44.0224 33.0119 42.9624 34.3148 42.9624C35.6178 42.9624 36.6778 44.0224 36.6778 45.3253C36.6778 46.6283 35.6178 47.6883 34.3148 47.6883C33.0119 47.6883 31.9519 46.6282 31.9519 45.3253Z" fill="#192E46"/>
<path d="M37.4724 32.9557C37.4724 34.8508 39.0142 36.3927 40.9094 36.3927C42.8046 36.3927 44.3464 34.8508 44.3464 32.9557C44.3464 31.0605 42.8046 29.5187 40.9094 29.5187C39.0142 29.5187 37.4724 31.0606 37.4724 32.9557ZM42.1983 32.9557C42.1983 33.6664 41.6201 34.2445 40.9094 34.2445C40.1987 34.2445 39.6205 33.6664 39.6205 32.9557C39.6205 32.245 40.1987 31.6668 40.9094 31.6668C41.6201 31.6668 42.1983 32.2451 42.1983 32.9557Z" fill="#192E46"/>
<path d="M28.0208 32.9557C28.0208 34.8508 29.5626 36.3927 31.4578 36.3927C33.3529 36.3927 34.8947 34.8508 34.8947 32.9557C34.8947 31.0605 33.3529 29.5187 31.4578 29.5187C29.5626 29.5187 28.0208 31.0606 28.0208 32.9557ZM32.7466 32.9557C32.7466 33.6664 32.1685 34.2445 31.4578 34.2445C30.7471 34.2445 30.1689 33.6664 30.1689 32.9557C30.1689 32.245 30.7471 31.6668 31.4578 31.6668C32.1685 31.6668 32.7466 32.2451 32.7466 32.9557Z" fill="#192E46"/>
<path d="M16.8833 26.7263C15.1765 26.7263 13.7754 28.0602 13.6678 29.7403C11.9878 29.848 10.6538 31.249 10.6538 32.9558C10.6538 34.6626 11.9878 36.0637 13.6678 36.1713C13.7755 37.8513 15.1765 39.1853 16.8833 39.1853C18.5901 39.1853 19.9912 37.8513 20.0988 36.1713C21.7789 36.0637 23.1129 34.6626 23.1129 32.9558C23.1129 31.249 21.7789 29.848 20.0988 29.7403C19.9911 28.0601 18.59 26.7263 16.8833 26.7263ZM20.9648 32.9557C20.9648 33.5479 20.4829 34.0297 19.8907 34.0297H19.0314C18.4382 34.0297 17.9574 34.5106 17.9574 35.1038V35.963C17.9574 36.5553 17.4756 37.0371 16.8833 37.0371C16.2911 37.0371 15.8093 36.5553 15.8093 35.963V35.1038C15.8093 34.5106 15.3284 34.0297 14.7352 34.0297H13.876C13.2837 34.0297 12.8019 33.5479 12.8019 32.9557C12.8019 32.3634 13.2837 31.8816 13.876 31.8816H14.7352C15.3284 31.8816 15.8093 31.4008 15.8093 30.8076V29.9483C15.8093 29.3561 16.2911 28.8743 16.8833 28.8743C17.4756 28.8743 17.9574 29.3561 17.9574 29.9483V30.8076C17.9574 31.4008 18.4382 31.8816 19.0314 31.8816H19.8907C20.4829 31.8816 20.9648 32.3634 20.9648 32.9557Z" fill="#192E46"/>
<path d="M49.7382 35.6727C49.7382 35.9562 49.8531 36.2323 50.0529 36.4331C50.2526 36.6329 50.5287 36.7478 50.8122 36.7478C51.0947 36.7478 51.3718 36.6329 51.5716 36.4331C51.7714 36.2323 51.8863 35.9562 51.8863 35.6727C51.8863 35.3902 51.7714 35.1131 51.5716 34.9133C51.3718 34.7136 51.0947 34.5986 50.8122 34.5986C50.5287 34.5986 50.2526 34.7136 50.0529 34.9133C49.8531 35.1131 49.7382 35.3903 49.7382 35.6727Z" fill="#192E46"/>
</svg>
