<svg width="18" height="18" viewBox="0 0 18 18" fill="none" xmlns="http://www.w3.org/2000/svg">
<g clip-path="url(#clip0)">
<path d="M3.98918 10.8776L3.36263 13.2166L1.07258 13.2651C0.388195 11.9957 0 10.5434 0 8.99999C0 7.50757 0.362953 6.1002 1.00631 4.86098H1.0068L3.04559 5.23476L3.9387 7.26131C3.75177 7.80626 3.64989 8.39126 3.64989 8.99999C3.64996 9.66065 3.76963 10.2936 3.98918 10.8776Z" fill="#FBBB00"/>
<path d="M17.8429 7.31866C17.9462 7.86309 18.0001 8.42535 18.0001 8.99998C18.0001 9.64432 17.9324 10.2728 17.8033 10.8791C17.3652 12.9422 16.2204 14.7437 14.6346 16.0185L14.6341 16.018L12.0661 15.887L11.7027 13.6182C12.755 13.001 13.5773 12.0353 14.0105 10.8791H9.198V7.31866H14.0807H17.8429Z" fill="#518EF8"/>
<path d="M14.6338 16.018L14.6343 16.0185C13.092 17.2582 11.1327 18 8.99993 18C5.57251 18 2.59263 16.0843 1.07251 13.2651L3.98911 10.8777C4.74915 12.9061 6.70591 14.3501 8.99993 14.3501C9.98596 14.3501 10.9097 14.0835 11.7024 13.6182L14.6338 16.018Z" fill="#28B446"/>
<path d="M14.7447 2.07197L11.8291 4.45894C11.0087 3.94615 10.039 3.64992 9.00004 3.64992C6.65409 3.64992 4.66073 5.16013 3.93877 7.26131L1.00684 4.86098H1.00635C2.50421 1.97307 5.52168 0 9.00004 0C11.1838 0 13.186 0.777867 14.7447 2.07197Z" fill="#F14336"/>
</g>
<defs>
<clipPath id="clip0">
<rect width="18" height="18" fill="white"/>
</clipPath>
</defs>
</svg>
