<svg width="55" height="55" viewBox="0 0 55 55" fill="none" xmlns="http://www.w3.org/2000/svg">
<path d="M32.8675 18.266C32.8675 18.8593 32.3866 19.3402 31.7937 19.3402C31.2004 19.3402 30.7195 18.8593 30.7195 18.266C30.7195 17.6726 31.2004 17.1917 31.7937 17.1917C32.3866 17.1917 32.8675 17.6726 32.8675 18.266Z" fill="white"/>
<path d="M28.5709 18.266C28.5709 18.8593 28.09 19.3402 27.4971 19.3402C26.9038 19.3402 26.4229 18.8593 26.4229 18.266C26.4229 17.6726 26.9038 17.1917 27.4971 17.1917C28.09 17.1917 28.5709 17.6726 28.5709 18.266Z" fill="white"/>
<path d="M24.2749 18.266C24.2749 18.8593 23.794 19.3402 23.2007 19.3402C22.6074 19.3402 22.1265 18.8593 22.1265 18.266C22.1265 17.6726 22.6074 17.1917 23.2007 17.1917C23.794 17.1917 24.2749 17.6726 24.2749 18.266Z" fill="white"/>
<path d="M13.5334 49.6292C13.5334 50.2226 13.0525 50.7034 12.4596 50.7034C11.8663 50.7034 11.3854 50.2226 11.3854 49.6292C11.3854 49.0363 11.8663 48.5555 12.4596 48.5555C13.0525 48.5555 13.5334 49.0363 13.5334 49.6292Z" fill="white"/>
<path d="M31.3153 34.8815C28.9243 33.2853 25.8351 33.2849 23.4458 34.8803C22.9528 35.2097 22.8198 35.8768 23.1492 36.3699C23.4786 36.8634 24.1453 36.9964 24.6388 36.667C26.3034 35.555 28.4561 35.5554 30.1228 36.6682C30.6158 36.9972 31.283 36.8646 31.6124 36.3712C31.9418 35.8777 31.8088 35.2105 31.3153 34.8815Z" fill="white"/>
<path d="M19.1483 29.9989L19.8722 29.5172C24.433 26.475 30.3281 26.4754 34.8906 29.5184L35.6115 29.9985C36.1067 30.3287 36.7734 30.1924 37.1012 29.7001C37.4297 29.2067 37.2963 28.5395 36.8024 28.2109L36.0823 27.7313C30.7956 24.2053 23.9651 24.2049 18.6809 27.7292L17.9579 28.2105C17.464 28.5395 17.3305 29.2063 17.6591 29.6997C17.9881 30.1936 18.6549 30.3275 19.1483 29.9989Z" fill="white"/>
<path d="M34.4206 31.7868L33.6972 31.3043C29.8594 28.7463 24.9 28.7463 21.0617 31.3043L20.3392 31.7868C19.8457 32.1158 19.7127 32.783 20.0416 33.2765C20.371 33.7695 21.0378 33.903 21.5313 33.5736L22.2539 33.0918C25.3678 31.0164 29.3919 31.0164 32.5055 33.0914L33.2285 33.5736C33.722 33.903 34.3887 33.7699 34.7181 33.2765C35.0471 32.783 34.9141 32.1162 34.4206 31.7868Z" fill="white"/>
<path d="M27.4972 37.17C25.7201 37.17 24.275 38.6156 24.275 40.3923C24.275 42.169 25.7201 43.6145 27.4972 43.6145C29.2739 43.6145 30.7194 42.169 30.7194 40.3923C30.7194 38.6156 29.2739 37.17 27.4972 37.17ZM27.4972 41.4665C26.9047 41.4665 26.423 40.9844 26.423 40.3923C26.423 39.7998 26.9047 39.3181 27.4972 39.3181C28.0893 39.3181 28.571 39.7998 28.571 40.3923C28.571 40.9844 28.0893 41.4665 27.4972 41.4665Z" fill="white"/>
<path d="M1.07426 55H53.9199C54.5128 55 54.9937 54.5191 54.9937 53.9258C54.9937 53.3329 54.5128 52.852 53.9199 52.852H47.9047V26.2084L49.221 27.2663C49.6842 27.6385 50.3619 27.5638 50.7329 27.0997L54.7587 22.0668C55.1283 21.604 55.0541 20.9293 54.5925 20.5583L45.7566 13.4605V6.26618C47.0067 5.82265 47.9047 4.62884 47.9047 3.22858C47.9047 1.45151 46.4591 0.00634674 44.6824 0.00634674C42.9058 0.00634674 41.4602 1.45151 41.4602 3.22858C41.4602 4.62842 42.3582 5.82265 43.6082 6.26618V11.735L30.1809 0.948385C28.6006 -0.316338 26.393 -0.316338 24.8115 0.949644L0.401613 20.5583C-0.0603841 20.9293 -0.134656 21.604 0.235445 22.0664L4.26082 27.0997C4.63134 27.563 5.3086 27.6389 5.7727 27.2663L7.08903 26.2084V52.8516H1.07426C0.480921 52.8516 4.06236e-05 53.3324 4.06236e-05 53.9258C4.06236e-05 54.5187 0.480921 55 1.07426 55ZM44.6824 2.15436C45.2745 2.15436 45.7566 2.63608 45.7566 3.22858C45.7566 3.82066 45.2745 4.3028 44.6824 4.3028C44.0904 4.3028 43.6082 3.82066 43.6082 3.22858C43.6082 2.63608 44.0904 2.15436 44.6824 2.15436ZM5.26622 24.9173L2.58236 21.562L26.1551 2.62559C26.9453 1.99365 28.0489 1.99365 28.8373 2.62433L52.4113 21.562L49.7275 24.9173L28.1697 7.59217C27.9733 7.43397 27.735 7.35509 27.4971 7.35509C27.2587 7.35509 27.0204 7.43397 26.824 7.59217L5.26622 24.9173ZM9.23747 24.4817L27.4971 9.80732L45.7566 24.4817V48.5551H16.7561C16.1628 48.5551 15.6819 49.0364 15.6819 49.6293C15.6819 50.2227 16.1628 50.7035 16.7561 50.7035H45.7566V52.8516H9.23747V24.4817Z" fill="white"/>
</svg>
