<svg width="22" height="21" viewBox="0 0 22 21" fill="none" xmlns="http://www.w3.org/2000/svg">
<path d="M9.2812 17.1909C9.75583 17.1909 10.1406 16.8061 10.1406 16.3315V14.6128C10.1406 14.1389 10.5261 13.7534 10.9999 13.7534C11.4738 13.7534 11.8593 14.1389 11.8593 14.6128V16.3315C11.8593 16.8061 12.2441 17.1909 12.7187 17.1909C13.1933 17.1909 13.5781 16.8061 13.5781 16.3315V14.6128C13.5781 13.1912 12.4215 12.0346 10.9999 12.0346C9.57837 12.0346 8.42182 13.1912 8.42182 14.6128V16.3315C8.42182 16.8061 8.80657 17.1909 9.2812 17.1909Z" fill="#192E46"/>
<path d="M21.0345 7.44612C21.0345 7.44612 12.6123 0.570217 12.61 0.568412C11.662 -0.189471 10.3379 -0.189471 9.38998 0.568412C9.3877 0.570217 0.965485 7.44612 0.965485 7.44612C-0.146331 8.33733 -0.322589 9.95708 0.565446 11.0662C1.45731 12.183 3.08208 12.3567 4.18969 11.4691C4.19201 11.4672 11 5.89344 11 5.89344C11 5.89344 17.8081 11.4673 17.8104 11.4692C18.9156 12.3544 20.5409 12.1854 21.4339 11.0671C22.3255 9.95343 22.1428 8.33446 21.0345 7.44612ZM20.0914 9.99374C19.7961 10.3637 19.2571 10.4235 18.8877 10.1299L11.5443 4.11789C11.2277 3.8587 10.7722 3.8587 10.4556 4.11789L3.11212 10.13C2.74547 10.4214 2.20578 10.366 1.90779 9.99279C1.61135 9.62253 1.67056 9.08258 2.04181 8.7861C2.04422 8.78421 10.4662 1.90848 10.4662 1.90848C10.781 1.65896 11.219 1.65896 11.5338 1.90848C11.5338 1.90848 19.9558 8.78417 19.9582 8.7861C20.3282 9.08164 20.3899 9.62103 20.0914 9.99374Z" fill="#192E46"/>
<path d="M4.29682 13.4576C3.82218 13.4576 3.43744 13.8424 3.43744 14.317V16.3315C3.43744 18.7008 5.36502 20.6284 7.73432 20.6284H14.2656C16.6349 20.6284 18.5624 18.7008 18.5624 16.3315V14.3167C18.5624 13.8421 18.1777 13.4573 17.7031 13.4573C17.2284 13.4573 16.8437 13.8421 16.8437 14.3167V16.3315C16.8437 17.7531 15.6871 18.9096 14.2656 18.9096H7.73432C6.31274 18.9096 5.15619 17.7531 5.15619 16.3315V14.317C5.15619 13.8424 4.77145 13.4576 4.29682 13.4576Z" fill="#192E46"/>
</svg>
