<svg width="55" height="49" viewBox="0 0 55 49" fill="none" xmlns="http://www.w3.org/2000/svg">
<path d="M44.3899 23.3782H30.4541C29.8609 23.3782 29.3799 23.8592 29.3799 24.4525C29.3799 25.0458 29.8609 25.5267 30.4541 25.5267H44.3899C47.7254 25.5267 50.4389 28.2403 50.4389 31.5757C50.4389 34.9112 47.7253 37.6248 44.3899 37.6248H33.308V36.9074C33.308 36.3141 32.8269 35.8332 32.2338 35.8332H28.4539V35.2681C28.4539 32.0525 25.8376 29.4362 22.622 29.4362H10.7134C10.1202 29.4362 9.63918 29.9171 9.63918 30.5104V31.4243H1.93359C0.867432 31.4243 0 32.2917 0 33.3578V44.2759C0 45.3421 0.867432 46.2095 1.93359 46.2095H9.63918V47.1233C9.63918 47.7166 10.1202 48.1975 10.7134 48.1975H22.622C25.8378 48.1975 28.4539 45.5814 28.4539 42.3656V41.5646H32.2339C32.8271 41.5646 33.3081 41.0836 33.3081 40.4903V39.7731H44.3899C48.91 39.7731 52.5873 36.0957 52.5873 31.5755C52.5874 27.0555 48.9101 23.3782 44.3899 23.3782ZM9.63918 44.0612H2.14844V33.5728H9.63918V44.0612ZM26.3056 42.3657C26.3056 44.3969 24.653 46.0492 22.622 46.0492H11.7876V31.5846H22.622C24.0981 31.5846 25.3735 32.4578 25.9606 33.7144H18.6989C18.1057 33.7144 17.6247 34.1953 17.6247 34.7886C17.6247 35.3819 18.1057 35.8628 18.6989 35.8628H26.3056V42.3657ZM31.1596 39.4161H28.4539V37.9815H31.1596V39.4161Z" fill="#192E46"/>
<path d="M53.0662 2.79055H45.3606V1.87671C45.3606 1.28342 44.8796 0.80249 44.2864 0.80249H32.3778C29.162 0.80249 26.5459 3.41875 26.5459 6.63442V7.31741H23.0791C22.4859 7.31741 22.0049 7.79834 22.0049 8.39163V9.10899H9.00198C4.48188 9.10899 0.804509 12.7864 0.804509 17.3065V17.3292C0.804509 21.8493 4.48177 25.5267 9.00198 25.5267H21.9139C22.5072 25.5267 22.9881 25.0458 22.9881 24.4525C22.9881 23.8592 22.5072 23.3783 21.9139 23.3783H9.00198C5.66653 23.3783 2.95295 20.6647 2.95295 17.3292V17.3065C2.95295 13.971 5.66653 11.2574 9.00198 11.2574H22.0049V11.9747C22.0049 12.568 22.4859 13.0489 23.0791 13.0489H26.5459V13.7319C26.5459 16.9477 29.1622 19.5638 32.3778 19.5638H44.2863C44.8795 19.5638 45.3605 19.0829 45.3605 18.4896V17.5758H53.0662C54.1324 17.5758 54.9998 16.7083 54.9998 15.6422V4.72414C54.9998 3.65798 54.1324 2.79055 53.0662 2.79055ZM26.5459 10.9004H24.1533V9.46574H26.5459V10.9004ZM32.3778 17.4155C30.9017 17.4155 29.6264 16.5424 29.0393 15.2857H36.301C36.8942 15.2857 37.3752 14.8048 37.3752 14.2115C37.3752 13.6182 36.8942 13.1373 36.301 13.1373H28.6943V6.63442C28.6943 4.60329 30.3468 2.95093 32.3778 2.95093H43.2121V17.4155H32.3778ZM52.8513 15.4274H45.3606V4.93898H52.8513V15.4274Z" fill="#192E46"/>
<path d="M41.5024 14.0017C41.4885 13.933 41.467 13.8653 41.4401 13.8009C41.4133 13.7353 41.381 13.673 41.3424 13.615C41.3027 13.5559 41.2575 13.5012 41.2081 13.4517C40.959 13.2025 40.5883 13.0887 40.2391 13.1585C40.1704 13.1725 40.1026 13.1929 40.0383 13.2197C39.9727 13.2466 39.9105 13.2799 39.8525 13.3185C39.7933 13.3572 39.7385 13.4023 39.6891 13.4517C39.6397 13.5012 39.5946 13.5559 39.5559 13.615C39.5174 13.673 39.484 13.7353 39.4571 13.8009C39.4302 13.8653 39.4088 13.933 39.396 14.0017C39.3819 14.0705 39.3745 14.1414 39.3745 14.2112C39.3745 14.281 39.3819 14.3519 39.396 14.4218C39.4088 14.4894 39.4302 14.5571 39.4571 14.6226C39.484 14.6871 39.5173 14.7494 39.5559 14.8074C39.5946 14.8665 39.6397 14.9213 39.6891 14.9707C39.7385 15.0212 39.7933 15.0652 39.8525 15.105C39.9105 15.1436 39.9727 15.1769 40.0383 15.2038C40.1027 15.2307 40.1704 15.2511 40.2391 15.265C40.3079 15.279 40.3788 15.2854 40.4486 15.2854C40.5184 15.2854 40.5893 15.279 40.6581 15.265C40.7268 15.2511 40.7945 15.2307 40.86 15.2038C40.9245 15.1769 40.9868 15.1436 41.0448 15.105C41.1039 15.0652 41.1587 15.0212 41.2081 14.9707C41.2575 14.9213 41.3027 14.8665 41.3424 14.8074C41.381 14.7494 41.4133 14.6871 41.4401 14.6226C41.467 14.5571 41.4885 14.4894 41.5024 14.4218C41.5164 14.3519 41.5228 14.281 41.5228 14.2112C41.5228 14.1414 41.5163 14.0704 41.5024 14.0017Z" fill="#192E46"/>
<path d="M49.8984 7.17536H47.2944C46.7011 7.17536 46.2201 7.65628 46.2201 8.24957C46.2201 8.84287 46.7011 9.32379 47.2944 9.32379H49.8984C50.4917 9.32379 50.9726 8.84287 50.9726 8.24957C50.9726 7.65628 50.4917 7.17536 49.8984 7.17536Z" fill="#192E46"/>
<path d="M49.8984 11.0425H47.2944C46.7011 11.0425 46.2201 11.5235 46.2201 12.1168C46.2201 12.7101 46.7011 13.191 47.2944 13.191H49.8984C50.4917 13.191 50.9726 12.7101 50.9726 12.1168C50.9726 11.5235 50.4917 11.0425 49.8984 11.0425Z" fill="#192E46"/>
<path d="M15.311 34.0293C15.2613 33.9799 15.2067 33.9348 15.1476 33.895C15.0896 33.8563 15.0273 33.823 14.9619 33.7962C14.8973 33.7693 14.8297 33.7489 14.761 33.735C14.6224 33.707 14.4795 33.707 14.341 33.735C14.2733 33.7489 14.2056 33.7693 14.1401 33.7962C14.0756 33.823 14.0133 33.8563 13.9553 33.895C13.8961 33.9348 13.8413 33.9799 13.7919 34.0293C13.591 34.2291 13.4772 34.5052 13.4772 34.7888C13.4772 35.0713 13.591 35.3484 13.7919 35.5482C13.8413 35.5978 13.8961 35.6428 13.9553 35.6814C14.0133 35.7201 14.0756 35.7534 14.1401 35.7803C14.2056 35.8071 14.2733 35.8275 14.341 35.8415C14.4107 35.8555 14.4817 35.863 14.5515 35.863C14.6212 35.863 14.6921 35.8555 14.761 35.8415C14.8297 35.8275 14.8974 35.8071 14.9619 35.7803C15.0273 35.7534 15.0896 35.7201 15.1476 35.6814C15.2067 35.6428 15.2615 35.5976 15.311 35.5482C15.5107 35.3484 15.6257 35.0713 15.6257 34.7888C15.6257 34.5052 15.5108 34.2292 15.311 34.0293Z" fill="#192E46"/>
<path d="M7.7054 39.6762H5.10139C4.5082 39.6762 4.02717 40.1571 4.02717 40.7504C4.02717 41.3437 4.5082 41.8246 5.10139 41.8246H7.7054C8.29859 41.8246 8.77962 41.3437 8.77962 40.7504C8.77962 40.1571 8.29869 39.6762 7.7054 39.6762Z" fill="#192E46"/>
<path d="M7.7054 35.809H5.10139C4.5082 35.809 4.02717 36.2899 4.02717 36.8832C4.02717 37.4765 4.5082 37.9574 5.10139 37.9574H7.7054C8.29859 37.9574 8.77962 37.4765 8.77962 36.8832C8.77962 36.2899 8.29869 35.809 7.7054 35.809Z" fill="#192E46"/>
<path d="M27.2636 24.2422C27.2507 24.1734 27.2292 24.1068 27.2024 24.0413C27.1755 23.9768 27.1422 23.9145 27.1035 23.8565C27.065 23.7974 27.0199 23.7427 26.9703 23.6922C26.9209 23.6428 26.8661 23.5987 26.807 23.559C26.749 23.5203 26.6867 23.487 26.6212 23.4601C26.5568 23.4333 26.4891 23.4129 26.4204 23.3989C26.2819 23.371 26.139 23.371 26.0015 23.3989C25.9327 23.4129 25.8651 23.4333 25.7995 23.4601C25.735 23.487 25.6728 23.5203 25.6148 23.559C25.5556 23.5987 25.5008 23.6428 25.4515 23.6922C25.4021 23.7427 25.357 23.7974 25.3172 23.8565C25.2785 23.9145 25.2452 23.9768 25.2184 24.0413C25.1926 24.1068 25.1711 24.1734 25.1572 24.2422C25.1432 24.312 25.1369 24.3818 25.1369 24.4527C25.1369 24.5225 25.1433 24.5934 25.1572 24.6622C25.1711 24.7309 25.1926 24.7986 25.2184 24.8631C25.2452 24.9275 25.2784 24.9909 25.3172 25.0489C25.357 25.108 25.4021 25.1628 25.4515 25.2122C25.5009 25.2616 25.5557 25.3067 25.6148 25.3454C25.6728 25.3841 25.735 25.4174 25.7995 25.4442C25.8651 25.4711 25.9327 25.4915 26.0015 25.5054C26.0702 25.5194 26.1411 25.5269 26.211 25.5269C26.2807 25.5269 26.3517 25.5194 26.4204 25.5054C26.4892 25.4915 26.5569 25.4711 26.6212 25.4442C26.6867 25.4174 26.749 25.3841 26.807 25.3454C26.8661 25.3067 26.9209 25.2616 26.9703 25.2122C27.0199 25.1628 27.065 25.108 27.1035 25.0489C27.1422 24.9909 27.1755 24.9275 27.2024 24.8631C27.2292 24.7986 27.2507 24.7309 27.2636 24.6622C27.2776 24.5934 27.2851 24.5225 27.2851 24.4527C27.2851 24.3818 27.2776 24.3121 27.2636 24.2422Z" fill="#192E46"/>
</svg>
