<svg width="26" height="26" viewBox="0 0 26 26" fill="none" xmlns="http://www.w3.org/2000/svg">
<path d="M21.9375 13C21.9375 13.5609 21.4828 14.0156 20.9219 14.0156H9.62554C9.76295 16.5859 10.3878 18.8629 10.872 20.4166C11.0389 20.9521 10.74 21.5216 10.2045 21.6884C10.1039 21.7197 10.0021 21.7346 9.90204 21.7346C9.46928 21.7346 9.06821 21.4558 8.93268 21.0209C8.4079 19.3368 7.72891 16.8541 7.59164 14.0156H5.07812C4.5172 14.0156 4.0625 13.5609 4.0625 13C4.0625 12.4391 4.5172 11.9844 5.07812 11.9844H7.5918C7.72987 9.14616 8.41308 6.6625 8.94111 4.97758C9.10889 4.44229 9.67875 4.14446 10.2139 4.31214C10.7492 4.47987 11.0471 5.04974 10.8794 5.58497C10.3924 7.13883 9.76396 9.41586 9.62569 11.9844H16.3769C16.2786 9.94073 15.8848 7.83682 15.1792 5.58497C15.0115 5.04974 15.3094 4.47987 15.8447 4.31214C16.3801 4.14441 16.9499 4.44239 17.1175 4.97763C17.8868 7.43285 18.3122 9.73563 18.4107 11.9844H20.9219C21.4828 11.9844 21.9375 12.4391 21.9375 13ZM22.1924 3.80758C19.737 1.35225 16.4724 0 13 0C9.52758 0 6.263 1.35225 3.80758 3.80758C1.35225 6.263 0 9.52758 0 13C0 16.4724 1.35225 19.737 3.80758 22.1924C6.263 24.6477 9.52758 26 13 26C13.1855 26 13.3734 25.996 13.5586 25.9882C14.119 25.9645 14.5541 25.4909 14.5303 24.9305C14.5066 24.3701 14.0332 23.9359 13.4726 23.9587C13.316 23.9654 13.157 23.9688 13 23.9688C6.9518 23.9688 2.03125 19.0482 2.03125 13C2.03125 6.9518 6.9518 2.03125 13 2.03125C19.0482 2.03125 23.9688 6.9518 23.9688 13C23.9688 13.5609 24.4234 14.0156 24.9844 14.0156C25.5453 14.0156 26 13.5609 26 13C26 9.52758 24.6477 6.263 22.1924 3.80758Z" fill="#0D5BA4"/>
<path d="M25.7026 16.1411C25.3059 15.7445 24.6628 15.7445 24.2662 16.1411L22.7166 17.6907L17.9127 16.7757C17.409 16.6795 16.9124 16.9746 16.7556 17.4631C16.5989 17.9516 16.831 18.4802 17.2968 18.6954L20.3168 20.0906L18.0273 22.38L17.5776 21.9303C17.1809 21.5337 16.5378 21.5337 16.1412 21.9303C15.7446 22.3269 15.7446 22.97 16.1412 23.3666L18.4772 25.7026C18.6755 25.9008 18.9354 26 19.1953 26C19.4552 26 19.7152 25.9008 19.9135 25.7026C20.3101 25.3059 20.3101 24.6628 19.9135 24.2662L19.4637 23.8164L21.7531 21.527L23.1483 24.547C23.3182 24.9148 23.6835 25.1368 24.0703 25.1368C24.1732 25.1368 24.2779 25.121 24.3805 25.0881C24.869 24.9314 25.1639 24.435 25.0679 23.931L24.1529 19.1271L25.7025 17.5775C26.0991 17.1809 26.0991 16.5378 25.7026 16.1411Z" fill="#0D5BA4"/>
</svg>
