<svg width="2" height="2" viewBox="0 0 5 5" fill="none" xmlns="http://www.w3.org/2000/svg">
<path d="M9 9.5625C7.83689 9.5625 6.89062 10.5088 6.89062 11.6719C6.89062 12.5885 7.47851 13.3701 8.29688 13.6603V14.4844C8.29688 14.8727 8.61166 15.1875 9 15.1875C9.38834 15.1875 9.70312 14.8727 9.70312 14.4844V13.6603C10.5215 13.3701 11.1094 12.5885 11.1094 11.6719C11.1094 10.5088 10.1631 9.5625 9 9.5625ZM9 12.375C8.6123 12.375 8.29688 12.0596 8.29688 11.6719C8.29688 11.2842 8.6123 10.9688 9 10.9688C9.3877 10.9688 9.70312 11.2842 9.70312 11.6719C9.70312 12.0596 9.3877 12.375 9 12.375Z" fill="#878787"/>
<path d="M6.1875 18H11.8125C13.7511 18 15.3281 16.4229 15.3281 14.4844V10.2656C15.3281 8.32711 13.7511 6.75 11.8125 6.75H6.1875C4.24895 6.75 2.67188 8.32711 2.67188 10.2656V14.4844C2.67188 16.4229 4.24895 18 6.1875 18ZM4.07812 10.2656C4.07812 9.10252 5.02439 8.15625 6.1875 8.15625H11.8125C12.9756 8.15625 13.9219 9.10252 13.9219 10.2656V14.4844C13.9219 15.6475 12.9756 16.5938 11.8125 16.5938H6.1875C5.02439 16.5938 4.07812 15.6475 4.07812 14.4844V10.2656Z" fill="#878787"/>
<path d="M6.1875 5.34375C6.57584 5.34375 6.89062 5.02896 6.89062 4.64062V3.51562C6.89062 2.35252 7.83689 1.40625 9 1.40625C10.1631 1.40625 11.1094 2.35252 11.1094 3.51562V4.64062C11.1094 5.02896 11.4242 5.34375 11.8125 5.34375C12.2008 5.34375 12.5156 5.02896 12.5156 4.64062V3.51562C12.5156 1.57711 10.9386 0 9 0C7.06145 0 5.48438 1.57711 5.48438 3.51562V4.64062C5.48438 5.02896 5.79916 5.34375 6.1875 5.34375Z" fill="#878787"/>
</svg>
