<svg width="18" height="15" viewBox="0 0 18 15" fill="none" xmlns="http://www.w3.org/2000/svg">
<path d="M13.7812 14.2031H4.21875C1.89253 14.2031 0 12.3106 0 9.98438V4.21875C0 1.89253 1.89253 0 4.21875 0H13.7812C16.1075 0 18 1.89253 18 4.21875V9.98438C18 12.3106 16.1075 14.2031 13.7812 14.2031ZM4.21875 1.40625C2.66794 1.40625 1.40625 2.66794 1.40625 4.21875V9.98438C1.40625 11.5352 2.66794 12.7969 4.21875 12.7969H13.7812C15.3321 12.7969 16.5938 11.5352 16.5938 9.98438V4.21875C16.5938 2.66794 15.3321 1.40625 13.7812 1.40625H4.21875ZM11.5765 8.3463L15.0518 5.69159C15.3604 5.45586 15.4195 5.01462 15.1838 4.70602C14.948 4.39741 14.5068 4.33835 14.1982 4.57407L10.7233 7.22848C9.71986 7.99379 8.31857 7.99436 7.3145 7.23041L3.9472 4.61285C3.64061 4.37449 3.19883 4.42986 2.96054 4.73646C2.72222 5.04306 2.77755 5.4848 3.08415 5.72312L6.45405 8.34268C6.45574 8.34402 6.45746 8.34532 6.45919 8.34662C7.21237 8.92107 8.11484 9.20827 9.01751 9.20827C9.92018 9.20827 10.823 8.9209 11.5765 8.3463Z" fill="#878787"/>
</svg>
