<svg width="18" height="18" viewBox="0 0 18 18" fill="none" xmlns="http://www.w3.org/2000/svg">
<path d="M6.50397 10.6171C6.50397 10.2288 6.81875 9.91398 7.20708 9.91398H10.7929C11.7258 9.95111 11.7251 11.2834 10.7929 11.3202H7.20708C6.81875 11.3202 6.50397 11.0054 6.50397 10.6171ZM17.9709 3.25837L16.5936 7.90657V13.7811C16.5936 16.1072 14.7011 17.9997 12.3749 17.9997H5.62508C3.29891 17.9997 1.40641 16.1072 1.40641 13.7811V7.80461C1.40641 7.80131 1.40687 7.79815 1.40691 7.79484L0.0305302 3.26294C-0.0823191 2.89141 0.127419 2.49873 0.498978 2.38588C0.870643 2.2731 1.26322 2.48276 1.37604 2.85432L2.66593 7.10154H15.3655L16.6226 2.85889C16.7329 2.48656 17.1243 2.27426 17.4964 2.38451C17.8688 2.49482 18.0812 2.88607 17.9709 3.25837ZM15.1874 8.50776H2.81264V13.7811C2.81264 15.3319 4.0743 16.5935 5.62508 16.5935H12.3749C13.9257 16.5935 15.1874 15.3319 15.1874 13.7811V8.50776ZM9.7811 4.51978L13.0519 1.19642C13.3242 0.919643 13.3207 0.474468 13.0439 0.202083C12.7671 -0.0702676 12.3219 -0.0667168 12.0496 0.210028L8.78068 3.53156C8.49043 3.83643 7.97136 3.83646 7.68115 3.53156L6.33536 2.17413C6.06199 1.89841 5.61682 1.89644 5.34102 2.16984C5.06526 2.44325 5.06336 2.88842 5.33673 3.16419L6.68256 4.52161C7.09581 4.93842 7.64568 5.16798 8.23092 5.16798C8.81615 5.16798 9.36598 4.93845 9.7811 4.51978Z" fill="#878787"/>
</svg>
