<svg width="18" height="18" viewBox="0 0 18 18" fill="none" xmlns="http://www.w3.org/2000/svg">
<path d="M2.67188 16.5938H7.59375V17.2969C7.59375 17.6852 7.90854 18 8.29688 18C8.68521 18 9 17.6852 9 17.2969V16.5938H13.9219C15.085 16.5938 16.0312 15.6475 16.0312 14.4844C16.0312 13.6985 15.599 12.9829 14.9032 12.6168C14.7368 12.5293 14.625 12.3037 14.625 12.0555V11.6719C14.625 11.2835 14.3102 10.9688 13.9219 10.9688C13.5335 10.9688 13.2188 11.2835 13.2188 11.6719V12.0555C13.2188 12.8352 13.6133 13.5272 14.2484 13.8613C14.4807 13.9835 14.625 14.2223 14.625 14.4844C14.625 14.8721 14.3096 15.1875 13.9219 15.1875H2.67188C2.28417 15.1875 1.96875 14.8721 1.96875 14.4844C1.96875 14.2223 2.11307 13.9835 2.34534 13.8613C2.98048 13.5272 3.375 12.8352 3.375 12.0555V7.73438C3.375 5.02045 5.58295 2.8125 8.29688 2.8125C8.78854 2.8125 9.27362 2.88461 9.7387 3.02685C10.11 3.14044 10.5032 2.93147 10.6167 2.56011C10.7303 2.18876 10.5214 1.79568 10.15 1.68209C9.77505 1.56741 9.3903 1.4882 9 1.44496V0.703125C9 0.314789 8.68521 0 8.29688 0C7.90854 0 7.59375 0.314789 7.59375 0.703125V1.44552C4.43412 1.79645 1.96875 4.4827 1.96875 7.73438V12.0555C1.96875 12.3037 1.85695 12.5293 1.69056 12.6168C0.994746 12.9829 0.5625 13.6985 0.5625 14.4844C0.5625 15.6475 1.50877 16.5938 2.67188 16.5938Z" fill="#878787"/>
<path d="M13.9219 9.84375C15.8604 9.84375 17.4375 8.26664 17.4375 6.32812C17.4375 4.38961 15.8604 2.8125 13.9219 2.8125C11.9834 2.8125 10.4062 4.38961 10.4062 6.32812C10.4062 8.26664 11.9834 9.84375 13.9219 9.84375ZM13.9219 4.21875C15.085 4.21875 16.0312 5.16502 16.0312 6.32812C16.0312 7.49123 15.085 8.4375 13.9219 8.4375C12.7588 8.4375 11.8125 7.49123 11.8125 6.32812C11.8125 5.16502 12.7588 4.21875 13.9219 4.21875Z" fill="#878787"/>
<path d="M13.9219 7.03125C14.3102 7.03125 14.625 6.71645 14.625 6.32812C14.625 5.9398 14.3102 5.625 13.9219 5.625C13.5336 5.625 13.2188 5.9398 13.2188 6.32812C13.2188 6.71645 13.5336 7.03125 13.9219 7.03125Z" fill="#878787"/>
</svg>
