<svg width="26" height="26" viewBox="0 0 26 26" fill="none" xmlns="http://www.w3.org/2000/svg">
<path d="M22.9531 9.14069C22.3922 9.14069 21.9375 9.59538 21.9375 10.1563C21.9375 10.7172 22.3922 11.1719 22.9531 11.1719C23.5131 11.1719 23.9688 11.6275 23.9688 12.1876C23.9688 12.7476 23.5131 13.2032 22.9531 13.2032C22.3922 13.2032 21.9375 13.6579 21.9375 14.2188C21.9375 14.7797 22.3922 15.2344 22.9531 15.2344C24.6332 15.2344 26 13.8676 26 12.1876C26 10.5075 24.6332 9.14069 22.9531 9.14069Z" fill="#0D5BA4"/>
<path d="M17.2139 0.00115336C16.3354 0.0158799 15.5058 0.409587 14.938 1.08137L11.0048 5.73441C10.8114 5.96318 10.5287 6.0944 10.2292 6.0944H4.0625C1.82244 6.0944 0 7.91683 0 10.1569V14.2194C0 16.4595 1.82244 18.2819 4.0625 18.2819H10.2292C10.5287 18.2819 10.8115 18.4131 11.0048 18.6419L14.938 23.2949C15.5059 23.9667 16.3354 24.3605 17.2138 24.3752C17.231 24.3755 17.248 24.3756 17.2651 24.3756C18.961 24.3756 20.3125 22.9611 20.3125 21.2904V3.08591C20.3125 1.40429 18.9398 -0.0274365 17.2139 0.00115336ZM18.2812 21.2905C18.2812 21.8498 17.8259 22.3532 17.2479 22.3443C16.9554 22.3394 16.6788 22.2079 16.4893 21.9837L12.5561 17.3306C11.9759 16.6443 11.1278 16.2507 10.2292 16.2507H4.0625C2.94247 16.2507 2.03125 15.3395 2.03125 14.2194V10.1569C2.03125 9.03692 2.94247 8.1257 4.0625 8.1257H10.2292C11.1278 8.1257 11.9759 7.73209 12.5561 7.04573L16.4893 2.39265C16.6788 2.1684 16.9554 2.03702 17.248 2.0321C17.8176 2.0225 18.2812 2.51889 18.2812 3.08591V21.2905Z" fill="#0D5BA4"/>
<path d="M7.10938 20.3125C6.54845 20.3125 6.09375 20.7672 6.09375 21.3281V22.9531C6.09375 23.5131 5.63814 23.9688 5.07812 23.9688C4.51811 23.9688 4.0625 23.5131 4.0625 22.9531V21.3281C4.0625 20.7672 3.6078 20.3125 3.04688 20.3125C2.48595 20.3125 2.03125 20.7672 2.03125 21.3281V22.9531C2.03125 24.6332 3.39808 26 5.07812 26C6.75817 26 8.125 24.6332 8.125 22.9531V21.3281C8.125 20.7672 7.6703 20.3125 7.10938 20.3125Z" fill="#0D5BA4"/>
<path d="M9.14062 10.1563C8.5797 10.1563 8.125 10.611 8.125 11.1719V13.2032C8.125 13.7641 8.5797 14.2188 9.14062 14.2188C9.70155 14.2188 10.1562 13.7641 10.1562 13.2032V11.1719C10.1562 10.611 9.70155 10.1563 9.14062 10.1563Z" fill="#0D5BA4"/>
</svg>
