<svg width="35" height="55" viewBox="0 0 35 55" fill="none" xmlns="http://www.w3.org/2000/svg">
<path d="M2.16535 6.49606V48.5039C2.16535 50.8957 4.10432 52.8346 6.49606 52.8346H28.3661C30.7579 52.8346 32.6968 50.8957 32.6968 48.5039V6.49606C32.6979 4.12717 30.7719 2.18484 28.404 2.16535C27.8064 2.15994 27.33 1.67057 27.33 1.07402C27.33 0.496083 27.8205 0 28.4127 0C31.9746 0 34.8622 2.88761 34.8622 6.44951V48.5039C34.8622 52.0916 31.9538 55 28.3661 55H6.49606C2.9084 55 0 52.0916 0 48.5039V6.49606C0 2.9084 2.9084 0 6.49606 0H18.6297C19.2055 0 19.7096 0.433071 19.7487 1.00754C19.7916 1.63787 19.29 2.16535 18.6686 2.16535H6.49606C4.10432 2.16535 2.16535 4.10432 2.16535 6.49606ZM23.5406 2.16535C22.943 2.16535 22.458 1.67923 22.458 1.08268C22.458 0.486122 22.943 0 23.5406 0C24.1372 0 24.6233 0.486122 24.6233 1.08268C24.6233 1.67923 24.1371 2.16535 23.5406 2.16535ZM29.4488 43.3071H5.41339C4.81553 43.3071 4.33071 42.8223 4.33071 42.2244V9.74409C4.33071 9.14624 4.81553 8.66142 5.41339 8.66142H29.4488C30.0467 8.66142 30.5315 9.14624 30.5315 9.74409V42.2244C30.5315 42.8223 30.0467 43.3071 29.4488 43.3071ZM6.49606 41.1417H28.3661V10.8268H6.49606V41.1417ZM21.1122 5.41339C21.1122 4.81553 20.6274 4.33071 20.0295 4.33071H14.8327C14.2348 4.33071 13.75 4.81553 13.75 5.41339C13.75 6.01124 14.2348 6.49606 14.8327 6.49606H20.0295C20.6274 6.49606 21.1122 6.01124 21.1122 5.41339ZM18.1961 51.4316C17.7734 51.8536 17.0888 51.8536 16.6661 51.4316L14.0671 48.8364C13.6443 48.4136 13.6443 47.7281 14.0671 47.3052L16.6655 44.7068C17.0884 44.2841 17.7738 44.2841 18.1968 44.7068L20.7952 47.3052C21.218 47.728 21.218 48.4135 20.7952 48.8364L18.1961 51.4316ZM16.3639 48.0709L17.4311 49.1381L18.4983 48.0709L17.4311 47.0037L16.3639 48.0709Z" fill="#192E46"/>
</svg>
