<svg width="16" height="18" viewBox="0 0 16 18" fill="none" xmlns="http://www.w3.org/2000/svg">
<path d="M13.9554 1.00201C13.0097 0.203968 11.7722 -0.140563 10.5558 0.0633429C9.75074 0.196937 8.89644 0.323499 8.03511 0.323499C7.23003 0.323499 6.41089 0.21803 5.45113 0.0633429C2.94449 -0.390173 0.508157 1.6735 0.550345 4.22233V7.78366C0.550345 9.22155 0.828079 10.6243 1.38003 11.9532C1.93199 13.2821 2.72652 14.4704 3.74253 15.4899L5.0187 16.7661C6.66402 18.4114 9.33941 18.4114 10.9847 16.7661L12.2609 15.4899C14.2929 13.4719 15.4636 10.6489 15.4531 7.78366V4.23287C15.4531 2.98483 14.9046 1.80709 13.9554 1.00201ZM14.0468 7.78366C14.0468 10.3184 13.0589 12.702 11.266 14.495L9.9898 15.7712C8.89292 16.868 7.1105 16.868 6.01363 15.7712L4.73745 14.495C2.94449 12.702 1.95659 10.3184 1.95659 7.78366V4.22233C1.9355 2.5067 3.54917 1.15319 5.22964 1.4485C6.11558 1.59264 7.08589 1.72623 8.03863 1.72623C9.00542 1.72623 9.9687 1.58561 10.7914 1.4485C11.6 1.31491 12.4226 1.54342 13.0484 2.07428C13.6847 2.61217 14.0468 3.39967 14.0468 4.22936V7.78366Z" fill="#878787"/>
<path d="M8.58676 10.9372L11.8563 7.6149C12.127 7.33716 12.1235 6.8942 11.8493 6.61998C11.5715 6.34928 11.1286 6.35279 10.8543 6.62701L7.58481 9.94926C7.29302 10.2551 6.77622 10.2551 6.48442 9.94926L5.13794 8.59224C4.86372 8.31802 4.42076 8.3145 4.14302 8.58872C3.8688 8.86294 3.86529 9.30591 4.13951 9.58364L5.48599 10.9407C5.90083 11.359 6.44927 11.5875 7.03286 11.5875C7.61645 11.5875 8.17192 11.3555 8.58676 10.9372Z" fill="#878787"/>
</svg>
