<svg width="55" height="55" viewBox="0 0 55 55" fill="none" xmlns="http://www.w3.org/2000/svg">
<path d="M51.7775 9.88301H41.465V3.22265C41.465 1.44568 40.0193 0 38.2423 0H16.758C14.981 0 13.5353 1.44568 13.5353 3.22265V9.8829H3.22265C1.44568 9.8829 0 11.3286 0 13.1056V38.8868C0 40.6637 1.44568 42.1094 3.22265 42.1094H13.5351V51.7774C13.5351 53.5543 14.9808 55 16.7578 55H38.2421C40.0191 55 41.4648 53.5543 41.4648 51.7774V42.1094H51.7772C53.5542 42.1094 54.9999 40.6637 54.9999 38.8868V13.1056C55.0001 11.3286 53.5544 9.88301 51.7775 9.88301ZM15.6837 9.8829V3.22265C15.6837 2.63033 16.1656 2.14843 16.7579 2.14843H38.2422C38.8345 2.14843 39.3164 2.63033 39.3164 3.22265V9.8829H15.6837C15.6837 9.88301 15.6837 9.88301 15.6837 9.8829ZM39.3164 51.7775C39.3164 52.3698 38.8345 52.8517 38.2422 52.8517H16.7579C16.1656 52.8517 15.6837 52.3698 15.6837 51.7775V37.8125H39.3164V51.7775ZM51.7775 39.9611H41.465V37.8125H42.5392C43.1325 37.8125 43.6134 37.3316 43.6134 36.7383C43.6134 36.145 43.1325 35.6641 42.5392 35.6641H12.4609C11.8676 35.6641 11.3867 36.145 11.3867 36.7383C11.3867 37.3316 11.8676 37.8125 12.4609 37.8125H13.5352V39.9611H3.22265C2.63033 39.9611 2.14843 39.4792 2.14843 38.8869V33.5155H22.6656C23.2589 33.5155 23.7399 33.0345 23.7399 32.4412C23.7399 31.8479 23.2589 31.367 22.6656 31.367H2.14854V13.1056C2.14854 12.5132 2.63043 12.0313 3.22276 12.0313H51.7775C52.3698 12.0313 52.8517 12.5132 52.8517 13.1056V31.367H32.3336C31.7403 31.367 31.2594 31.8479 31.2594 32.4412C31.2594 33.0345 31.7403 33.5155 32.3336 33.5155H52.8516V38.8869C52.8517 39.4792 52.3698 39.9611 51.7775 39.9611Z" fill="#192E46"/>
<path d="M36.0938 48.5545H29.6486C29.0553 48.5545 28.5744 49.0355 28.5744 49.6288C28.5744 50.222 29.0553 50.703 29.6486 50.703H36.0938C36.6871 50.703 37.168 50.222 37.168 49.6288C37.168 49.0355 36.6871 48.5545 36.0938 48.5545Z" fill="#192E46"/>
<path d="M36.0937 44.2577H18.9063C18.313 44.2577 17.8321 44.7386 17.8321 45.3319C17.8321 45.9252 18.313 46.4061 18.9063 46.4061H36.0937C36.687 46.4061 37.168 45.9252 37.168 45.3319C37.168 44.7386 36.687 44.2577 36.0937 44.2577Z" fill="#192E46"/>
<path d="M36.0937 39.9609H18.9063C18.313 39.9609 17.8321 40.4418 17.8321 41.0351C17.8321 41.6284 18.313 42.1093 18.9063 42.1093H36.0937C36.687 42.1093 37.168 41.6284 37.168 41.0351C37.168 40.4418 36.687 39.9609 36.0937 39.9609Z" fill="#192E46"/>
<path d="M47.4804 22.7738C45.7034 22.7738 44.2577 24.2195 44.2577 25.9965C44.2577 27.7735 45.7034 29.2192 47.4804 29.2192C49.2574 29.2192 50.703 27.7735 50.703 25.9965C50.703 24.2195 49.2574 22.7738 47.4804 22.7738ZM47.4804 27.0707C46.8881 27.0707 46.4062 26.5888 46.4062 25.9965C46.4062 25.4042 46.8881 24.9223 47.4804 24.9223C48.0727 24.9223 48.5546 25.4042 48.5546 25.9965C48.5546 26.5888 48.0727 27.0707 47.4804 27.0707Z" fill="#192E46"/>
<path d="M38.8869 29.2192C40.6639 29.2192 42.1096 27.7735 42.1096 25.9965C42.1096 24.2195 40.6639 22.7738 38.8869 22.7738C37.11 22.7738 35.6643 24.2195 35.6643 25.9965C35.6642 27.7735 37.1099 29.2192 38.8869 29.2192ZM38.8869 24.9223C39.4793 24.9223 39.9612 25.4042 39.9612 25.9965C39.9612 26.5888 39.4793 27.0707 38.8869 27.0707C38.2946 27.0707 37.8127 26.5888 37.8127 25.9965C37.8127 25.4042 38.2946 24.9223 38.8869 24.9223Z" fill="#192E46"/>
<path d="M38.8868 20.6254H47.4806C49.2575 20.6254 50.7032 19.1797 50.7032 17.4027C50.7032 15.6257 49.2575 14.18 47.4806 14.18H38.8868C37.1098 14.18 35.6641 15.6257 35.6641 17.4027C35.6641 19.1797 37.1098 20.6254 38.8868 20.6254ZM38.8868 16.3285H47.4806C48.0729 16.3285 48.5548 16.8104 48.5548 17.4027C48.5548 17.995 48.0729 18.4769 47.4806 18.4769H38.8868C38.2945 18.4769 37.8126 17.995 37.8126 17.4027C37.8127 16.8104 38.2946 16.3285 38.8868 16.3285Z" fill="#192E46"/>
<path d="M27.5 31.3671C26.9067 31.3671 26.4255 31.848 26.4255 32.4413C26.4255 33.0346 26.9067 33.5155 27.5 33.5155C28.0933 33.5155 28.5743 33.0346 28.5743 32.4413C28.5743 31.848 28.0933 31.3671 27.5 31.3671Z" fill="#192E46"/>
</svg>
