<svg width="26" height="24" viewBox="0 0 26 24" fill="none" xmlns="http://www.w3.org/2000/svg">
<path d="M10.7656 6.92188H14.8281C16.5082 6.92188 17.875 5.55505 17.875 3.875C17.875 2.19495 16.5082 0.828125 14.8281 0.828125H10.7656C9.08558 0.828125 7.71875 2.19495 7.71875 3.875C7.71875 5.55505 9.08558 6.92188 10.7656 6.92188ZM10.7656 2.85938H14.8281C15.3881 2.85938 15.8438 3.31498 15.8438 3.875C15.8438 4.43502 15.3881 4.89062 14.8281 4.89062H10.7656C10.2056 4.89062 9.75 4.43502 9.75 3.875C9.75 3.31498 10.2056 2.85938 10.7656 2.85938Z" fill="#0D5BA4"/>
<path d="M10.7656 15.0469H18.8906C20.5707 15.0469 21.9375 13.68 21.9375 12C21.9375 10.32 20.5707 8.95312 18.8906 8.95312H10.7656C9.08558 8.95312 7.71875 10.32 7.71875 12C7.71875 13.68 9.08558 15.0469 10.7656 15.0469ZM10.7656 10.9844H18.8906C19.4506 10.9844 19.9062 11.44 19.9062 12C19.9062 12.56 19.4506 13.0156 18.8906 13.0156H10.7656C10.2056 13.0156 9.75 12.56 9.75 12C9.75 11.44 10.2056 10.9844 10.7656 10.9844Z" fill="#0D5BA4"/>
<path d="M22.9531 17.0781H10.7656C9.08558 17.0781 7.71875 18.445 7.71875 20.125C7.71875 21.805 9.08558 23.1719 10.7656 23.1719H22.9531C24.6332 23.1719 26 21.805 26 20.125C26 18.445 24.6332 17.0781 22.9531 17.0781ZM22.9531 21.1406H10.7656C10.2056 21.1406 9.75 20.685 9.75 20.125C9.75 19.565 10.2056 19.1094 10.7656 19.1094H22.9531C23.5131 19.1094 23.9688 19.565 23.9688 20.125C23.9688 20.685 23.5131 21.1406 22.9531 21.1406Z" fill="#0D5BA4"/>
<path d="M3.04688 6.92188C4.72692 6.92188 6.09375 5.55505 6.09375 3.875C6.09375 2.19495 4.72692 0.828125 3.04688 0.828125C1.36683 0.828125 0 2.19495 0 3.875C0 5.55505 1.36683 6.92188 3.04688 6.92188ZM3.04688 2.85938C3.60689 2.85938 4.0625 3.31498 4.0625 3.875C4.0625 4.43502 3.60689 4.89062 3.04688 4.89062C2.48686 4.89062 2.03125 4.43502 2.03125 3.875C2.03125 3.31498 2.48686 2.85938 3.04688 2.85938Z" fill="#0D5BA4"/>
<path d="M3.04688 15.0469C4.72692 15.0469 6.09375 13.68 6.09375 12C6.09375 10.32 4.72692 8.95312 3.04688 8.95312C1.36683 8.95312 0 10.32 0 12C0 13.68 1.36683 15.0469 3.04688 15.0469ZM3.04688 10.9844C3.60689 10.9844 4.0625 11.44 4.0625 12C4.0625 12.56 3.60689 13.0156 3.04688 13.0156C2.48686 13.0156 2.03125 12.56 2.03125 12C2.03125 11.44 2.48686 10.9844 3.04688 10.9844Z" fill="#0D5BA4"/>
<path d="M3.04688 23.1719C4.72692 23.1719 6.09375 21.805 6.09375 20.125C6.09375 18.445 4.72692 17.0781 3.04688 17.0781C1.36683 17.0781 0 18.445 0 20.125C0 21.805 1.36683 23.1719 3.04688 23.1719ZM3.04688 19.1094C3.60689 19.1094 4.0625 19.565 4.0625 20.125C4.0625 20.685 3.60689 21.1406 3.04688 21.1406C2.48686 21.1406 2.03125 20.685 2.03125 20.125C2.03125 19.565 2.48686 19.1094 3.04688 19.1094Z" fill="#0D5BA4"/>
</svg>
