<svg width="20" height="26" viewBox="0 0 20 26" fill="none" xmlns="http://www.w3.org/2000/svg">
<path d="M8.68696 19.8119L12.7495 15.7494C13.1461 15.3527 13.1461 14.7097 12.7495 14.3131C12.3528 13.9165 11.7097 13.9164 11.3131 14.3131L7.25061 18.3756C6.85396 18.7722 6.85396 19.4153 7.25061 19.8119C7.64727 20.2085 8.29031 20.2085 8.68696 19.8119Z" fill="#0D5BA4"/>
<path d="M7.96875 16.0469C8.52966 16.0469 8.98438 15.5922 8.98438 15.0312C8.98438 14.4703 8.52966 14.0156 7.96875 14.0156C7.40784 14.0156 6.95312 14.4703 6.95312 15.0312C6.95312 15.5922 7.40784 16.0469 7.96875 16.0469Z" fill="#0D5BA4"/>
<path d="M12.0312 20.1094C12.5922 20.1094 13.0469 19.6547 13.0469 19.0938C13.0469 18.5328 12.5922 18.0781 12.0312 18.0781C11.4703 18.0781 11.0156 18.5328 11.0156 19.0938C11.0156 19.6547 11.4703 20.1094 12.0312 20.1094Z" fill="#0D5BA4"/>
<path d="M8.98438 2.093L2.21752 6.60425C1.36709 7.17128 0.859375 8.11941 0.859375 9.14062V22.9531C0.859375 24.6332 2.2262 26 3.90625 26H16.0938C17.7738 26 19.1406 24.6332 19.1406 22.9531V9.14062C19.1406 8.11941 18.6329 7.17123 17.7824 6.60425L14.6259 4.49988C14.1593 4.18874 13.5286 4.31483 13.2175 4.78156C12.9064 5.24829 13.0325 5.87884 13.4992 6.18998L16.6557 8.29436C16.9398 8.48372 17.1094 8.80009 17.1094 9.14062V22.9531C17.1094 23.5131 16.6538 23.9688 16.0938 23.9688H3.90625C3.34623 23.9688 2.89062 23.5131 2.89062 22.9531V9.14062C2.89062 8.80014 3.06023 8.48377 3.34425 8.29436L8.98438 4.53431V8.125H7.96875C7.40782 8.125 6.95312 8.5797 6.95312 9.14062C6.95312 9.70155 7.40782 10.1562 7.96875 10.1562H12.0312C12.5922 10.1562 13.0469 9.70155 13.0469 9.14062C13.0469 8.5797 12.5922 8.125 12.0312 8.125H11.0156V2.64327C11.0156 2.6422 11.0156 2.64118 11.0156 2.64012V1.01562C11.0156 0.454695 10.5609 0 10 0C9.43907 0 8.98438 0.454695 8.98438 1.01562V2.093Z" fill="#0D5BA4"/>
</svg>
