<svg width="18" height="18" viewBox="0 0 18 18" fill="none" xmlns="http://www.w3.org/2000/svg">
<path d="M15.3947 2.65393C9.72749 -3.04139 -0.0564968 1.04377 -0.000246797 9.08402V17.2965C-0.000246797 17.5813 0.172019 17.8379 0.432175 17.9469C0.520066 17.9821 0.611472 17.9997 0.699363 17.9997C0.882175 17.9997 1.06147 17.9293 1.19507 17.7922L1.33218 17.6551C2.29194 16.6954 3.73686 16.4563 4.93218 17.0539C6.18374 17.6797 7.53374 17.9997 8.95053 17.9997C16.9556 18.0067 21.0021 8.34573 15.3947 2.65393ZM8.9646 16.5934C7.76577 16.5934 6.62319 16.3262 5.5685 15.7989C4.92866 15.4789 4.24311 15.3243 3.56108 15.3243C2.81577 15.3243 2.07397 15.5106 1.406 15.8692V9.08402C1.406 9.0805 1.406 9.0805 1.406 9.07699C1.37085 2.28127 9.59741 -1.16053 14.3962 3.64534C19.1283 8.39495 15.6865 16.6039 8.9646 16.5934Z" fill="#878787"/>
<path d="M8.99994 14.0621C8.51479 14.0621 8.12104 13.6683 8.12104 13.1832C8.16674 12.016 9.83315 12.0195 9.87885 13.1832C9.87885 13.6683 9.4851 14.0621 8.99994 14.0621ZM9.70307 10.5816C9.70307 9.94529 10.03 9.34412 10.5749 8.97498C11.3941 8.41951 11.8546 7.50193 11.8089 6.51052C11.7773 5.81091 11.4855 5.15349 10.9863 4.65427C10.4871 4.15505 9.82963 3.86326 9.13002 3.83162C8.35307 3.79646 7.6183 4.07068 7.0558 4.60857C6.4933 5.14294 6.18393 5.86716 6.18393 6.64412C6.2226 7.57576 7.55151 7.57576 7.59018 6.64412C7.59018 6.2574 7.74487 5.89529 8.02612 5.6281C8.30737 5.36091 8.67651 5.2238 9.06322 5.24138C10.4062 5.31521 10.8984 7.05544 9.78041 7.8113C8.8558 8.4406 8.29682 9.47771 8.29682 10.5816C8.29682 10.9683 8.61322 11.2847 8.99994 11.2847C9.38666 11.2847 9.70307 10.9683 9.70307 10.5816Z" fill="#878787"/>
</svg>
