<svg width="22" height="22" viewBox="0 0 22 22" fill="none" xmlns="http://www.w3.org/2000/svg">
<path d="M20.8138 19.6066L16.9724 15.7652C16.9724 15.7652 16.9681 15.7652 16.9681 15.7609C18.27 14.1926 19.052 12.1773 19.052 9.98591C19.052 4.98865 14.9872 0.928101 9.99424 0.928101C5.00127 0.928101 0.932129 4.98865 0.932129 9.98591C0.932129 14.9832 4.99697 19.0437 9.98994 19.0437C12.177 19.0437 14.1837 18.266 15.7478 16.9726L15.752 16.9769L19.5935 20.8183C19.761 20.9859 19.9802 21.0718 20.1993 21.0718C20.4185 21.0718 20.6376 20.9859 20.8052 20.8183C21.1489 20.4875 21.1489 19.9418 20.8138 19.6066ZM9.99424 17.3293C5.94658 17.3293 2.65088 14.0336 2.65088 9.98591C2.65088 5.93826 5.94658 2.64255 9.99424 2.64255C14.0419 2.64255 17.3376 5.93826 17.3376 9.98591C17.3376 14.0336 14.0419 17.3293 9.99424 17.3293Z" fill="#C0C0C0"/>
</svg>
