<svg width="26" height="23" viewBox="0 0 26 23" fill="none" xmlns="http://www.w3.org/2000/svg">
<path d="M7.10938 14.2188H11.9844V15.2344C11.9844 15.7953 12.4391 16.25 13 16.25C13.5609 16.25 14.0156 15.7953 14.0156 15.2344V14.2188H18.8906C22.8107 14.2188 26 11.0295 26 7.10938C26 5.42933 24.6332 4.0625 22.9531 4.0625H18.0781V3.04688C18.0781 1.36683 16.7113 0 15.0312 0H10.9688C9.2887 0 7.92188 1.36683 7.92188 3.04688V4.0625H3.04688C1.36683 4.0625 0 5.42933 0 7.10938C0 11.0295 3.18927 14.2188 7.10938 14.2188ZM9.95312 3.04688C9.95312 2.48686 10.4087 2.03125 10.9688 2.03125H15.0312C15.5913 2.03125 16.0469 2.48686 16.0469 3.04688V4.0625H9.95312V3.04688ZM3.04688 6.09375H22.9531C23.5131 6.09375 23.9688 6.54936 23.9688 7.10938C23.9688 9.90945 21.6908 12.1875 18.8906 12.1875H7.10938C4.30925 12.1875 2.03125 9.90945 2.03125 7.10938C2.03125 6.54936 2.48686 6.09375 3.04688 6.09375Z" fill="#0D5BA4"/>
<path d="M24.1719 17.2656V16.4174C24.1719 15.8565 23.7172 15.4018 23.1562 15.4018C22.5953 15.4018 22.1406 15.8565 22.1406 16.4174V17.2656C22.1406 18.9457 20.7738 20.3125 19.0938 20.3125H6.90625C5.2262 20.3125 3.85938 18.9457 3.85938 17.2656V16.4174C3.85938 15.8565 3.40468 15.4018 2.84375 15.4018C2.28282 15.4018 1.82812 15.8565 1.82812 16.4174V17.2656C1.82812 20.0657 4.10612 22.3437 6.90625 22.3437H19.0938C21.8939 22.3437 24.1719 20.0657 24.1719 17.2656Z" fill="#0D5BA4"/>
<path d="M9.95312 9.14062C9.95312 9.70155 10.4078 10.1562 10.9688 10.1562H15.0312C15.5922 10.1562 16.0469 9.70155 16.0469 9.14062C16.0469 8.5797 15.5922 8.125 15.0312 8.125H10.9688C10.4078 8.125 9.95312 8.5797 9.95312 9.14062Z" fill="#0D5BA4"/>
</svg>
