<svg width="19" height="22" viewBox="0 0 19 22" fill="none" xmlns="http://www.w3.org/2000/svg">
<path d="M9.45312 0C7.08383 0 5.15625 1.92758 5.15625 4.29688C5.15625 4.77151 5.54099 5.15625 6.01562 5.15625C6.49026 5.15625 6.875 4.77151 6.875 4.29688C6.875 2.8753 8.03155 1.71875 9.45312 1.71875C10.8747 1.71875 12.0312 2.8753 12.0312 4.29688C12.0312 4.77151 12.416 5.15625 12.8906 5.15625C13.3653 5.15625 13.75 4.77151 13.75 4.29688C13.75 1.92758 11.8224 0 9.45312 0Z" fill="#192E46"/>
<path d="M3.4375 22H15.4688C17.3642 22 18.9062 20.4579 18.9062 18.5625C18.9062 18.3346 18.8837 18.1067 18.8393 17.8852L17.1206 9.29178C16.8008 7.69222 15.3832 6.53125 13.75 6.53125H5.15625C3.52305 6.53125 2.10547 7.69222 1.78557 9.29173L0.0669023 17.8852C0.0225156 18.1067 0 18.3346 0 18.5625C0 20.4579 1.54206 22 3.4375 22ZM1.75222 18.2226L3.47097 9.62882C3.63073 8.82986 4.3395 8.25 5.15625 8.25H13.75C14.5667 8.25 15.2755 8.82986 15.4353 9.62882L17.154 18.2226C17.154 18.2225 17.154 18.2227 17.154 18.2226C17.1762 18.3331 17.1875 18.4477 17.1875 18.5625C17.1875 19.5102 16.4164 20.2812 15.4687 20.2812H3.4375C2.48978 20.2812 1.71875 19.5102 1.71875 18.5625C1.71875 18.4477 1.73001 18.3334 1.75222 18.2226Z" fill="#192E46"/>
<path d="M7.73438 18.5625C9.15595 18.5625 10.3125 17.406 10.3125 15.9844V14.2656C10.3125 13.1453 9.59398 12.1901 8.59375 11.8353V10.8281C8.59375 10.3535 8.20901 9.96875 7.73438 9.96875C7.25974 9.96875 6.875 10.3535 6.875 10.8281V11.8353C5.87477 12.1901 5.15625 13.1453 5.15625 14.2656V15.9844C5.15625 17.406 6.3128 18.5625 7.73438 18.5625ZM6.875 14.2656C6.875 13.7918 7.26052 13.4062 7.73438 13.4062C8.20823 13.4062 8.59375 13.7918 8.59375 14.2656V15.9844C8.59375 16.4582 8.20823 16.8438 7.73438 16.8438C7.26052 16.8438 6.875 16.4582 6.875 15.9844V14.2656Z" fill="#192E46"/>
</svg>
