<svg width="55" height="45" viewBox="0 0 55 45" fill="none" xmlns="http://www.w3.org/2000/svg">
<path d="M23.7139 2.14845C24.3072 2.14845 24.7881 1.66752 24.7881 1.07423C24.7315 -0.350719 22.6961 -0.350289 22.6397 1.07423C22.6397 1.66742 23.1206 2.14845 23.7139 2.14845Z" fill="#192E46"/>
<path d="M53.9258 18.7993H47.4268V1.07422C47.4268 0.480928 46.9458 0 46.3525 0H28.5474C27.9541 0 27.4731 0.480928 27.4731 1.07422C27.4731 1.66751 27.9541 2.14844 28.5474 2.14844H45.2783V18.7994H38.7793C38.186 18.7994 37.7051 19.2803 37.7051 19.8736V28.2702H2.14844V2.14844H18.8794C19.4727 2.14844 19.9536 1.66751 19.9536 1.07422C19.9536 0.480928 19.4727 0 18.8794 0H1.07422C0.480928 0 0 0.480928 0 1.07422V33.6413C0 34.2346 0.480928 34.7155 1.07422 34.7155H17.3128V38.2427H12.9443C12.351 38.2427 11.8701 38.7237 11.8701 39.3169V43.6138C11.8701 44.2071 12.351 44.688 12.9443 44.688H34.4824C35.0757 44.688 35.5566 44.2071 35.5566 43.6138V39.3169C35.5566 38.7237 35.0757 38.2427 34.4824 38.2427H30.1139V34.7155H37.7051V43.6138C37.7051 44.2071 38.186 44.688 38.7793 44.688H53.9258C54.5191 44.688 55 44.2071 55 43.6138V19.8736C55 19.2803 54.5191 18.7993 53.9258 18.7993ZM33.4082 42.5395H14.0186V40.3911H33.4082V42.5395ZM27.9655 38.2426H19.4612V34.7154H27.9655V38.2426ZM2.14844 32.5671V30.4186H37.7051V32.5671H2.14844ZM52.8516 42.5395H39.8535V20.9477H52.8516V42.5395Z" fill="#192E46"/>
<path d="M46.3525 40.3911C48.7514 40.3911 50.7031 38.4394 50.7031 36.0405C50.4641 30.2688 42.2401 30.2705 42.002 36.0405C42.002 38.4394 43.9536 40.3911 46.3525 40.3911ZM46.3525 33.8383C47.5668 33.8383 48.5547 34.8262 48.5547 36.0405C48.4337 38.9619 44.2709 38.9611 44.1504 36.0405C44.1504 34.8263 45.1382 33.8383 46.3525 33.8383Z" fill="#192E46"/>
<path d="M46.3525 29.5414C48.1295 29.5414 49.5752 28.0957 49.5752 26.3187C49.3982 22.0435 43.3063 22.0448 43.1299 26.3187C43.1299 28.0957 44.5756 29.5414 46.3525 29.5414ZM46.3525 25.2445C46.9449 25.2445 47.4268 25.7264 47.4268 26.3187C47.3678 27.7438 45.3371 27.7435 45.2783 26.3187C45.2783 25.7264 45.7602 25.2445 46.3525 25.2445Z" fill="#192E46"/>
<path d="M20.4775 17.0103C18.4438 16.2492 16.1389 17.8668 16.1806 20.0481C16.1806 21.8251 17.6263 23.2708 19.4032 23.2708C21.1802 23.2708 22.6259 21.8251 22.6259 20.0481V11.2985L29.0981 9.61211V14.7641C27.0644 14.003 24.7595 15.6206 24.8012 17.802C24.8012 19.5789 26.2469 21.0246 28.0239 21.0246C29.8008 21.0246 31.2465 19.5789 31.2465 17.802V8.22218C31.2622 7.54048 30.5571 6.99553 29.9014 7.18266L21.2808 9.42896C20.8171 9.54508 20.4729 9.99045 20.4774 10.4685L20.4775 17.0103ZM19.4032 21.1223C18.8109 21.1223 18.329 20.6404 18.329 20.048C18.388 18.623 20.4187 18.6234 20.4775 20.048C20.4775 20.6405 19.9956 21.1223 19.4032 21.1223ZM28.0239 18.8761C27.4315 18.8761 26.9496 18.3942 26.9496 17.8018C27.0086 16.3768 29.0393 16.3772 29.0981 17.8018C29.0981 18.3942 28.6162 18.8761 28.0239 18.8761Z" fill="#192E46"/>
</svg>
