<svg width="17" height="22" viewBox="0 0 17 22" fill="none" xmlns="http://www.w3.org/2000/svg">
<path d="M16.0703 22C15.5957 22 15.2109 21.6153 15.2109 21.1406C15.2109 17.7762 12.4738 15.0391 9.10938 15.0391H7.82031C4.4559 15.0391 1.71875 17.7762 1.71875 21.1406C1.71875 21.6153 1.33401 22 0.859375 22C0.384742 22 0 21.6153 0 21.1406C0 16.8285 3.50818 13.3203 7.82031 13.3203H9.10938C13.4215 13.3203 16.9297 16.8285 16.9297 21.1406C16.9297 21.6153 16.5449 22 16.0703 22Z" fill="#192E46"/>
<path d="M8.37891 11.6016C5.18036 11.6016 2.57812 8.99933 2.57812 5.80078C2.57812 2.60223 5.18036 0 8.37891 0C11.5775 0 14.1797 2.60223 14.1797 5.80078C14.1797 8.99933 11.5775 11.6016 8.37891 11.6016ZM8.37891 1.71875C6.12807 1.71875 4.29688 3.54995 4.29688 5.80078C4.29688 8.05161 6.12807 9.88281 8.37891 9.88281C10.6297 9.88281 12.4609 8.05161 12.4609 5.80078C12.4609 3.54995 10.6297 1.71875 8.37891 1.71875Z" fill="#192E46"/>
</svg>
