<svg width="14" height="18" viewBox="0 0 14 18" fill="none" xmlns="http://www.w3.org/2000/svg">
<path d="M11.9219 4.92188C11.9219 2.20781 9.71406 0 7 0C4.28594 0 2.07812 2.20781 2.07812 4.92188C2.07812 7.63594 4.28594 9.84375 7 9.84375C9.71406 9.84375 11.9219 7.63594 11.9219 4.92188ZM7 8.4375C5.06289 8.4375 3.48438 6.85898 3.48438 4.92188C3.48438 2.98477 5.06289 1.40625 7 1.40625C8.93711 1.40625 10.5156 2.98477 10.5156 4.92188C10.5156 6.85898 8.93711 8.4375 7 8.4375Z" fill="#878787"/>
<path d="M0.671875 15.8906C0.671875 17.0543 1.61758 18 2.78125 18H11.2188C12.3824 18 13.3281 17.0543 13.3281 15.8906C13.3281 14.2066 12.6637 12.6633 11.4578 11.5383C10.2836 10.4449 8.69805 9.84375 7 9.84375C5.30195 9.84375 3.71641 10.4449 2.54219 11.5383C1.33633 12.6633 0.671875 14.2066 0.671875 15.8906ZM7 11.25C9.80547 11.25 11.9219 13.2434 11.9219 15.8906C11.9219 16.2773 11.6055 16.5938 11.2188 16.5938H2.78125C2.39453 16.5938 2.07812 16.2773 2.07812 15.8906C2.07812 13.2434 4.19453 11.25 7 11.25Z" fill="#878787"/>
</svg>
