<svg width="18" height="14" viewBox="0 0 18 14" fill="none" xmlns="http://www.w3.org/2000/svg">
<path d="M8.99999 10.5156C7.06144 10.5156 5.48437 8.93852 5.48437 7C5.48437 5.06148 7.06144 3.48438 8.99999 3.48438C10.9385 3.48438 12.5156 5.06148 12.5156 7C12.5156 8.93852 10.9385 10.5156 8.99999 10.5156ZM8.99999 4.89062C7.83688 4.89062 6.89062 5.83689 6.89062 7C6.89062 8.16311 7.83688 9.10938 8.99999 9.10938C10.1631 9.10938 11.1094 8.16311 11.1094 7C11.1094 5.83689 10.1631 4.89062 8.99999 4.89062Z" fill="#878787"/>
<path d="M8.99999 13.3281C5.36491 13.3281 1.86014 10.0852 0.112667 7.38176C-0.0375557 7.14941 -0.0375557 6.85059 0.112667 6.61824C1.94357 3.78566 5.46644 0.671875 8.99999 0.671875C12.6351 0.671875 16.1398 3.91472 17.8873 6.61824C18.0375 6.85059 18.0375 7.14941 17.8873 7.38176C16.0564 10.2143 12.5335 13.3281 8.99999 13.3281ZM1.56146 6.99947C2.45221 8.21588 5.4573 11.9219 8.99999 11.9219C12.5514 11.9219 15.5493 8.21795 16.4385 7.00056C15.5474 5.78359 12.5424 2.07812 8.99999 2.07812C5.44858 2.07812 2.4507 5.78205 1.56146 6.99947Z" fill="#878787"/>
</svg>
