<svg width="22" height="20" viewBox="0 0 22 20" fill="none" xmlns="http://www.w3.org/2000/svg">
<path d="M10.9946 19.4561C10.4317 19.4561 9.90319 19.2327 9.50787 18.8244L1.81217 10.8752C0.578968 9.60335 -0.0784536 7.84163 0.00748391 6.04554C0.0934214 4.23226 0.89264 2.58656 2.26334 1.41781C3.47506 0.386556 5.02623 -0.107585 6.64186 0.0256183C8.21022 0.154525 9.68834 0.859212 10.8055 2.01077L10.9989 2.21273L11.1923 2.01077C12.3094 0.859212 13.7876 0.150228 15.3602 0.0213214C16.9715 -0.111882 18.527 0.382259 19.7344 1.41351C21.1051 2.58656 21.9044 4.23226 21.9903 6.04554C22.0719 7.84163 21.4102 9.59906 20.1727 10.8752L12.477 18.8244C12.086 19.2327 11.5575 19.4561 10.9946 19.4561ZM6.13483 1.64124C5.12077 1.64124 4.12389 1.9764 3.32037 2.6596C2.29772 3.53187 1.70045 4.76507 1.636 6.12288C1.57155 7.4721 2.06139 8.78695 2.98092 9.74085L10.6766 17.6901C10.7626 17.776 10.8743 17.8233 10.9903 17.8233C11.1063 17.8233 11.218 17.776 11.2997 17.6901L18.9954 9.74085C19.9192 8.78695 20.4133 7.4721 20.3532 6.12718C20.2887 4.76507 19.6915 3.53617 18.6688 2.6596C16.877 1.13421 14.1055 1.34906 12.361 3.14945L11.579 3.95726C11.4243 4.11624 11.2137 4.20648 10.9903 4.20648C10.7712 4.20648 10.5563 4.11624 10.4016 3.95726L9.61959 3.14945C8.66569 2.15257 7.38951 1.64124 6.13483 1.64124Z" fill="#192E46"/>
</svg>
